<svg version="1.1" id="Layer_1" xmlns="http://www.w3.org/2000/svg" x="0px" y="0px" viewBox="0 0 259 192" xml:space="preserve"><style type="text/css">.st0{fill:#FFFFFF;stroke:#000000;stroke-width:2;} .st1{stroke:#000000;stroke-width:2;stroke-linecap:square;stroke-miterlimit:10;} .st2{fill:none;stroke:#000000;stroke-width:2;stroke-linecap:round;stroke-linejoin:round;stroke-miterlimit:10;} .st3{stroke:#000000;stroke-linecap:round;stroke-linejoin:round;stroke-miterlimit:10;} .st4{fill:#DAE2F2;fill-opacity:0;} .st5{enable-background:new ;} .st6{fill:none;stroke:#000000;stroke-width:2;stroke-miterlimit:10;} .st7{fill:none;stroke:#000000;stroke-width:2;stroke-linecap:round;stroke-miterlimit:10;} .st8{fill:none;stroke:#000000;stroke-width:2;stroke-linecap:square;stroke-linejoin:round;stroke-miterlimit:10;} .st9{fill:none;stroke:#000000;stroke-width:1.5;stroke-linecap:round;stroke-miterlimit:10;} .st10{fill:none;stroke:#000000;stroke-width:2;stroke-linecap:square;stroke-miterlimit:10;}</style><g transform="scale(0.83) translate(-105.96875,-222)"><path pointer-events="none" d="M339 329H341V331H339z"/><path pointer-events="none" d="M379 299H381V301H379z"/><path pointer-events="none" d="M379 359H381V361H379z"/><ellipse pointer-events="none" class="st0" cx="371" cy="330" rx="24.8" ry="24.8"/><path pointer-events="none" class="st1" d="M341,330h23"/><path pointer-events="none" class="st2" d="M365,335l15,10"/><path pointer-events="none" class="st2" d="M365,325l15-10"/><path pointer-events="none" class="st1" d="M380,301v13"/><path pointer-events="none" class="st1" d="M380,346v13"/><path pointer-events="none" class="st2" d="M365,313v34"/><path pointer-events="none" class="st3" d="M372,343.1l7.5,1.4l-4.2-6.4L372,343.1z"/><path pointer-events="none" class="st4" d="M308 313H340V326H308z"/><g class="st5"><path d="M312.4,322v1.5h-5.8c0.1-0.6,0.2-1.1,0.6-1.6c0.3-0.5,0.9-1.2,1.9-2.1c0.7-0.7,1.2-1.2,1.4-1.4c0.2-0.3,0.3-0.7,0.3-1 c0-0.4-0.1-0.6-0.3-0.8c-0.2-0.2-0.5-0.3-0.8-0.3c-0.3,0-0.6,0.1-0.8,0.3c-0.2,0.2-0.3,0.6-0.4,1l-1.6-0.2c0.1-0.9,0.4-1.6,0.9-2 c0.5-0.4,1.2-0.6,1.9-0.6c0.8,0,1.5,0.2,2,0.7c0.5,0.5,0.7,1,0.7,1.7c0,0.4-0.1,0.8-0.2,1.1c-0.1,0.3-0.4,0.7-0.7,1.1 c-0.2,0.3-0.6,0.6-1.1,1.1c-0.5,0.5-0.8,0.8-1,0.9c-0.1,0.2-0.3,0.3-0.3,0.5H312.4z"/><path d="M313.9,323.5v-8.6h1.7l3.5,5.7v-5.7h1.6v8.6H319l-3.5-5.6v5.6H313.9z"/><path d="M327.7,322v1.5H322c0.1-0.6,0.2-1.1,0.6-1.6c0.3-0.5,0.9-1.2,1.9-2.1c0.7-0.7,1.2-1.2,1.4-1.4c0.2-0.3,0.3-0.7,0.3-1 c0-0.4-0.1-0.6-0.3-0.8c-0.2-0.2-0.5-0.3-0.8-0.3c-0.3,0-0.6,0.1-0.8,0.3c-0.2,0.2-0.3,0.6-0.4,1l-1.6-0.2c0.1-0.9,0.4-1.6,0.9-2 c0.5-0.4,1.2-0.6,1.9-0.6c0.8,0,1.5,0.2,2,0.7c0.5,0.5,0.7,1,0.7,1.7c0,0.4-0.1,0.8-0.2,1.1c-0.1,0.3-0.4,0.7-0.7,1.1 c-0.2,0.3-0.6,0.6-1.1,1.1c-0.5,0.5-0.8,0.8-1,0.9c-0.1,0.2-0.3,0.3-0.3,0.5H327.7z"/><path d="M334.4,322v1.5h-5.8c0.1-0.6,0.3-1.1,0.6-1.6c0.3-0.5,0.9-1.2,1.9-2.1c0.7-0.7,1.2-1.2,1.4-1.4c0.2-0.3,0.3-0.7,0.3-1 c0-0.4-0.1-0.6-0.3-0.8c-0.2-0.2-0.5-0.3-0.8-0.3c-0.3,0-0.6,0.1-0.8,0.3c-0.2,0.2-0.3,0.6-0.4,1l-1.6-0.2c0.1-0.9,0.4-1.6,0.9-2 c0.5-0.4,1.2-0.6,1.9-0.6c0.8,0,1.5,0.2,2,0.7c0.5,0.5,0.7,1,0.7,1.7c0,0.4-0.1,0.8-0.2,1.1c-0.1,0.3-0.4,0.7-0.7,1.1 c-0.2,0.3-0.6,0.6-1.1,1.1c-0.5,0.5-0.8,0.8-1,0.9c-0.1,0.2-0.3,0.3-0.3,0.5H334.4z"/><path d="M341.1,322v1.5h-5.8c0.1-0.6,0.3-1.1,0.6-1.6c0.3-0.5,0.9-1.2,1.9-2.1c0.7-0.7,1.2-1.2,1.4-1.4c0.2-0.3,0.3-0.7,0.3-1 c0-0.4-0.1-0.6-0.3-0.8c-0.2-0.2-0.5-0.3-0.8-0.3c-0.3,0-0.6,0.1-0.8,0.3c-0.2,0.2-0.3,0.6-0.4,1l-1.6-0.2c0.1-0.9,0.4-1.6,0.9-2 c0.5-0.4,1.2-0.6,1.9-0.6c0.8,0,1.5,0.2,2,0.7c0.5,0.5,0.7,1,0.7,1.7c0,0.4-0.1,0.8-0.2,1.1c-0.1,0.3-0.4,0.7-0.7,1.1 c-0.2,0.3-0.6,0.6-1.1,1.1c-0.5,0.5-0.8,0.8-1,0.9c-0.1,0.2-0.3,0.3-0.3,0.5H341.1z"/></g><path pointer-events="none" d="M229 329H231V331H229z"/><path pointer-events="none" d="M289 329H291V331H289z"/><path pointer-events="none" class="st2" d="M242,330l3-7l3,7"/><path pointer-events="none" class="st2" d="M248,330l3,7l3-7"/><path pointer-events="none" class="st2" d="M254,330l3-7l3,7"/><path pointer-events="none" class="st2" d="M260,330l3,7l3-7"/><path pointer-events="none" class="st2" d="M266,330l3-7l3,7"/><path pointer-events="none" class="st2" d="M272,330l3,7l3-7"/><path pointer-events="none" class="st1" d="M231,330h10"/><path pointer-events="none" class="st1" d="M279,330h10"/><path pointer-events="none" class="st4" d="M230 340H259V354H230z"/><g class="st5"><path d="M235.6,349.5v1.5h-5.8c0.1-0.6,0.3-1.1,0.6-1.6c0.3-0.5,0.9-1.2,1.9-2.1c0.7-0.7,1.2-1.2,1.4-1.4c0.2-0.3,0.3-0.7,0.3-1 c0-0.4-0.1-0.6-0.3-0.8c-0.2-0.2-0.5-0.3-0.8-0.3c-0.3,0-0.6,0.1-0.8,0.3c-0.2,0.2-0.3,0.6-0.4,1l-1.6-0.2c0.1-0.9,0.4-1.6,0.9-2 c0.5-0.4,1.2-0.6,1.9-0.6c0.8,0,1.5,0.2,2,0.7c0.5,0.5,0.7,1,0.7,1.7c0,0.4-0.1,0.8-0.2,1.1c-0.1,0.3-0.4,0.7-0.7,1.1 c-0.2,0.3-0.6,0.6-1.1,1.1c-0.5,0.5-0.8,0.8-1,0.9c-0.1,0.2-0.3,0.3-0.3,0.5H235.6z"/><path d="M242.2,349.5v1.5h-5.8c0.1-0.6,0.3-1.1,0.6-1.6c0.3-0.5,0.9-1.2,1.9-2.1c0.7-0.7,1.2-1.2,1.4-1.4c0.2-0.3,0.3-0.7,0.3-1 c0-0.4-0.1-0.6-0.3-0.8c-0.2-0.2-0.5-0.3-0.8-0.3c-0.3,0-0.6,0.1-0.8,0.3c-0.2,0.2-0.3,0.6-0.4,1l-1.6-0.2c0.1-0.9,0.4-1.6,0.9-2 c0.5-0.4,1.2-0.6,1.9-0.6c0.8,0,1.5,0.2,2,0.7c0.5,0.5,0.7,1,0.7,1.7c0,0.4-0.1,0.8-0.2,1.1c-0.1,0.3-0.4,0.7-0.7,1.1 c-0.2,0.3-0.6,0.6-1.1,1.1c-0.5,0.5-0.8,0.8-1,0.9c-0.1,0.2-0.3,0.3-0.3,0.5H242.2z"/><path d="M246.1,342.4c0.8,0,1.5,0.3,2,0.9c0.6,0.7,0.8,1.9,0.8,3.5c0,1.6-0.3,2.8-0.8,3.5c-0.5,0.6-1.1,0.9-1.9,0.9 c-0.8,0-1.5-0.3-2-1s-0.8-1.8-0.8-3.4c0-1.6,0.3-2.8,0.8-3.5C244.6,342.7,245.3,342.4,246.1,342.4z M246.1,343.7 c-0.2,0-0.4,0.1-0.5,0.2c-0.2,0.1-0.3,0.4-0.4,0.7c-0.1,0.4-0.2,1.1-0.2,2.1c0,1,0.1,1.7,0.2,2.1c0.1,0.4,0.2,0.6,0.4,0.8 s0.3,0.2,0.5,0.2c0.2,0,0.4-0.1,0.5-0.2c0.2-0.1,0.3-0.4,0.4-0.7c0.1-0.4,0.2-1.1,0.2-2.1c0-1-0.1-1.7-0.2-2.1 c-0.1-0.4-0.2-0.6-0.4-0.8C246.5,343.8,246.3,343.7,246.1,343.7z"/><path d="M253.6,351v-8.6h1.6v4.6l1.9-2.2h2l-2.1,2.3l2.3,3.9h-1.8l-1.6-2.8l-0.8,0.8v2H253.6z"/></g><path pointer-events="none" class="st6" d="M290,330h20h30"/><path pointer-events="none" d="M379 229H381V231H379z"/><path pointer-events="none" d="M379 279H381V281H379z"/><path pointer-events="none" d="M379 229H381V231H379z"/><path pointer-events="none" d="M379 279H381V281H379z"/><path pointer-events="none" class="st7" d="M362,251.5c36,0,36,0,36,0"/><path pointer-events="none" class="st7" d="M371,259c18,0,18,0,18,0"/><path pointer-events="none" class="st8" d="M380,231v20"/><path pointer-events="none" class="st8" d="M380,259v20"/><path pointer-events="none" class="st9" d="M362,241c10,0,10,0,10,0"/><path pointer-events="none" class="st9" d="M367,236c0,10,0,10,0,10"/><path pointer-events="none" class="st7" d="M362,251.5c36,0,36,0,36,0"/><path pointer-events="none" class="st7" d="M371,259c18,0,18,0,18,0"/><path pointer-events="none" class="st10" d="M380,231v20"/><path pointer-events="none" class="st10" d="M380,259v20"/><path pointer-events="none" class="st9" d="M362,241c10,0,10,0,10,0"/><path pointer-events="none" class="st9" d="M367,236c0,10,0,10,0,10"/><path pointer-events="none" class="st4" d="M270 240H340V253H270z"/><g class="st5"><path d="M263.9,241.9h3.4c0.7,0,1.2,0,1.5,0.1c0.3,0.1,0.6,0.2,0.9,0.4c0.3,0.2,0.5,0.4,0.7,0.7c0.2,0.3,0.3,0.6,0.3,1 c0,0.4-0.1,0.8-0.3,1.1c-0.2,0.3-0.5,0.6-0.9,0.8c0.5,0.2,0.9,0.4,1.2,0.8c0.3,0.4,0.4,0.8,0.4,1.3c0,0.4-0.1,0.8-0.3,1.1 s-0.4,0.7-0.7,0.9c-0.3,0.2-0.7,0.4-1.2,0.4c-0.3,0-1,0.1-2.1,0.1h-2.9V241.9z M265.6,243.3v2h1.1c0.7,0,1.1,0,1.3,0 c0.3,0,0.5-0.1,0.7-0.3c0.2-0.2,0.3-0.4,0.3-0.7c0-0.3-0.1-0.5-0.2-0.6c-0.1-0.2-0.4-0.3-0.7-0.3c-0.2,0-0.7,0-1.5,0H265.6z M265.6,246.8v2.3h1.6c0.6,0,1,0,1.2-0.1c0.3,0,0.5-0.2,0.6-0.3c0.2-0.2,0.2-0.4,0.2-0.7c0-0.3-0.1-0.5-0.2-0.7 c-0.1-0.2-0.3-0.3-0.5-0.4c-0.2-0.1-0.7-0.1-1.5-0.1H265.6z"/><path d="M276.6,250.5v-0.9c-0.2,0.3-0.5,0.6-0.9,0.8c-0.4,0.2-0.8,0.3-1.2,0.3c-0.4,0-0.8-0.1-1.1-0.3c-0.3-0.2-0.6-0.4-0.7-0.8 s-0.2-0.8-0.2-1.4v-3.9h1.6v2.9c0,0.9,0,1.4,0.1,1.6c0.1,0.2,0.2,0.4,0.3,0.5c0.2,0.1,0.4,0.2,0.6,0.2c0.3,0,0.5-0.1,0.8-0.2 c0.2-0.2,0.4-0.3,0.5-0.6s0.1-0.8,0.1-1.7v-2.6h1.6v6.2H276.6z"/><path d="M282.7,244.3v1.3h-1.1v2.5c0,0.5,0,0.8,0,0.9c0,0.1,0.1,0.2,0.1,0.2c0.1,0.1,0.2,0.1,0.3,0.1c0.2,0,0.4-0.1,0.7-0.2 l0.1,1.3c-0.4,0.2-0.8,0.2-1.3,0.2c-0.3,0-0.6-0.1-0.8-0.1c-0.2-0.1-0.4-0.2-0.5-0.4c-0.1-0.2-0.2-0.4-0.2-0.6 c0-0.2-0.1-0.6-0.1-1.2v-2.7h-0.8v-1.3h0.8V243l1.7-1v2.2H282.7z"/><path d="M286.7,244.3v1.3h-1.1v2.5c0,0.5,0,0.8,0,0.9c0,0.1,0.1,0.2,0.1,0.2c0.1,0.1,0.2,0.1,0.3,0.1c0.2,0,0.4-0.1,0.7-0.2 l0.1,1.3c-0.4,0.2-0.8,0.2-1.3,0.2c-0.3,0-0.6-0.1-0.8-0.1c-0.2-0.1-0.4-0.2-0.5-0.4c-0.1-0.2-0.2-0.4-0.2-0.6 c0-0.2-0.1-0.6-0.1-1.2v-2.7h-0.8v-1.3h0.8V243l1.7-1v2.2H286.7z"/><path d="M287.5,247.3c0-0.5,0.1-1.1,0.4-1.6c0.3-0.5,0.7-0.9,1.1-1.2c0.5-0.3,1-0.4,1.7-0.4c0.9,0,1.7,0.3,2.3,0.9 c0.6,0.6,0.9,1.4,0.9,2.3c0,0.9-0.3,1.7-0.9,2.3s-1.4,0.9-2.3,0.9c-0.6,0-1.1-0.1-1.6-0.4s-0.9-0.6-1.2-1.1 C287.6,248.6,287.5,248,287.5,247.3z M289.2,247.4c0,0.6,0.1,1.1,0.4,1.4c0.3,0.3,0.7,0.5,1.1,0.5s0.8-0.2,1.1-0.5 c0.3-0.3,0.4-0.8,0.4-1.4c0-0.6-0.1-1.1-0.4-1.4c-0.3-0.3-0.7-0.5-1.1-0.5s-0.8,0.2-1.1,0.5C289.3,246.3,289.2,246.8,289.2,247.4 z"/><path d="M300.8,250.5h-1.6v-3.2c0-0.7,0-1.1-0.1-1.3c-0.1-0.2-0.2-0.4-0.3-0.5c-0.2-0.1-0.3-0.2-0.6-0.2c-0.3,0-0.5,0.1-0.8,0.2 c-0.2,0.2-0.4,0.4-0.5,0.6c-0.1,0.3-0.1,0.7-0.1,1.4v2.8h-1.6v-6.2h1.5v0.9c0.5-0.7,1.2-1.1,2.1-1.1c0.4,0,0.7,0.1,1,0.2 c0.3,0.1,0.5,0.3,0.7,0.5c0.2,0.2,0.3,0.4,0.3,0.7c0.1,0.3,0.1,0.6,0.1,1.1V250.5z"/><path d="M307.6,250.5l-2.5-6.2h1.7l1.2,3.2l0.3,1.1c0.1-0.3,0.1-0.4,0.2-0.5c0.1-0.2,0.1-0.4,0.2-0.5l1.2-3.2h1.7l-2.5,6.2H307.6 z"/><path d="M312.1,247.3c0-0.5,0.1-1.1,0.4-1.6c0.3-0.5,0.7-0.9,1.1-1.2c0.5-0.3,1-0.4,1.7-0.4c0.9,0,1.7,0.3,2.3,0.9 c0.6,0.6,0.9,1.4,0.9,2.3c0,0.9-0.3,1.7-0.9,2.3c-0.6,0.6-1.4,0.9-2.3,0.9c-0.6,0-1.1-0.1-1.6-0.4s-0.9-0.6-1.2-1.1 C312.3,248.6,312.1,248,312.1,247.3z M313.8,247.4c0,0.6,0.1,1.1,0.4,1.4c0.3,0.3,0.7,0.5,1.1,0.5c0.4,0,0.8-0.2,1.1-0.5 c0.3-0.3,0.4-0.8,0.4-1.4c0-0.6-0.1-1.1-0.4-1.4c-0.3-0.3-0.7-0.5-1.1-0.5c-0.4,0-0.8,0.2-1.1,0.5 C314,246.3,313.8,246.8,313.8,247.4z"/><path d="M319.8,250.5v-8.6h1.6v8.6H319.8z"/><path d="M326,244.3v1.3h-1.1v2.5c0,0.5,0,0.8,0,0.9c0,0.1,0.1,0.2,0.1,0.2c0.1,0.1,0.2,0.1,0.3,0.1c0.2,0,0.4-0.1,0.7-0.2 l0.1,1.3c-0.4,0.2-0.8,0.2-1.3,0.2c-0.3,0-0.6-0.1-0.8-0.1c-0.2-0.1-0.4-0.2-0.5-0.4c-0.1-0.2-0.2-0.4-0.2-0.6 c0-0.2-0.1-0.6-0.1-1.2v-2.7h-0.8v-1.3h0.8V243l1.7-1v2.2H326z"/><path d="M328.4,246.2l-1.5-0.3c0.2-0.6,0.5-1,0.9-1.3c0.4-0.3,1-0.4,1.8-0.4c0.7,0,1.3,0.1,1.6,0.3c0.4,0.2,0.6,0.4,0.8,0.7 c0.1,0.3,0.2,0.8,0.2,1.5l0,1.9c0,0.5,0,1,0.1,1.2c0.1,0.3,0.2,0.5,0.3,0.8H331c0-0.1-0.1-0.3-0.2-0.5c0-0.1,0-0.2-0.1-0.2 c-0.3,0.3-0.6,0.5-0.9,0.6c-0.3,0.1-0.7,0.2-1,0.2c-0.6,0-1.1-0.2-1.5-0.5c-0.4-0.3-0.6-0.8-0.6-1.3c0-0.4,0.1-0.7,0.3-0.9 c0.2-0.3,0.4-0.5,0.7-0.6c0.3-0.1,0.7-0.3,1.3-0.4c0.8-0.1,1.3-0.3,1.6-0.4v-0.2c0-0.3-0.1-0.5-0.2-0.7c-0.2-0.1-0.5-0.2-0.9-0.2 c-0.3,0-0.5,0.1-0.7,0.2C328.6,245.7,328.5,245.9,328.4,246.2z M330.6,247.5c-0.2,0.1-0.5,0.2-1,0.3s-0.8,0.2-0.9,0.3 c-0.2,0.2-0.3,0.3-0.3,0.6c0,0.2,0.1,0.4,0.3,0.6c0.2,0.2,0.4,0.3,0.7,0.3c0.3,0,0.6-0.1,0.8-0.3c0.2-0.1,0.3-0.3,0.4-0.5 c0-0.1,0.1-0.4,0.1-0.8V247.5z"/><path d="M333.7,250.9l1.9,0.2c0,0.2,0.1,0.4,0.2,0.5c0.2,0.1,0.4,0.2,0.7,0.2c0.4,0,0.8-0.1,1-0.2c0.1-0.1,0.3-0.2,0.3-0.4 c0.1-0.1,0.1-0.4,0.1-0.8v-0.9c-0.5,0.7-1.1,1-1.9,1c-0.8,0-1.5-0.4-2-1.1c-0.4-0.6-0.6-1.3-0.6-2.1c0-1,0.3-1.8,0.8-2.4 c0.5-0.6,1.1-0.8,1.9-0.8c0.8,0,1.4,0.3,1.9,1v-0.9h1.5v5.6c0,0.7-0.1,1.3-0.2,1.6c-0.1,0.4-0.3,0.6-0.5,0.9s-0.5,0.4-0.9,0.5 c-0.4,0.1-0.8,0.2-1.4,0.2c-1.1,0-1.8-0.2-2.2-0.5c-0.4-0.4-0.7-0.8-0.7-1.4C333.7,251.1,333.7,251,333.7,250.9z M335.2,247.3 c0,0.7,0.1,1.1,0.4,1.5c0.3,0.3,0.6,0.5,0.9,0.5c0.4,0,0.7-0.2,1-0.5c0.3-0.3,0.4-0.8,0.4-1.4c0-0.6-0.1-1.1-0.4-1.4 c-0.3-0.3-0.6-0.5-1-0.5c-0.4,0-0.7,0.2-1,0.5C335.3,246.2,335.2,246.6,335.2,247.3z"/><path d="M344.8,248.5l1.6,0.3c-0.2,0.6-0.5,1.1-1,1.4c-0.5,0.3-1,0.5-1.7,0.5c-1.1,0-1.9-0.4-2.4-1.1c-0.4-0.6-0.6-1.3-0.6-2.1 c0-1,0.3-1.8,0.8-2.4c0.5-0.6,1.2-0.9,2-0.9c0.9,0,1.7,0.3,2.2,0.9c0.5,0.6,0.8,1.5,0.8,2.8h-4.1c0,0.5,0.1,0.9,0.4,1.1 c0.3,0.3,0.6,0.4,0.9,0.4c0.3,0,0.5-0.1,0.6-0.2C344.6,249.1,344.7,248.8,344.8,248.5z M344.9,246.9c0-0.5-0.1-0.8-0.4-1.1 s-0.5-0.4-0.9-0.4c-0.4,0-0.7,0.1-0.9,0.4c-0.2,0.3-0.3,0.6-0.3,1.1H344.9z"/></g><path pointer-events="none" class="st6" d="M380,280v20"/><path pointer-events="none" d="M189 329H191V331H189z"/><path pointer-events="none" class="st1" d="M172,330h17"/><path pointer-events="none" class="st10" d="M167.1,324.3l5.7,5.7l-5.7,5.7"/><path pointer-events="none" class="st4" d="M110 300H204V314H110z"/><g class="st5"><path d="M110.9,311v-8.6h6.4v1.5h-4.6v1.9h4.3v1.4h-4.3v2.3h4.8v1.4H110.9z"/><path d="M118.4,308.2l1.7-0.2c0.1,0.6,0.3,1,0.6,1.2c0.3,0.3,0.7,0.4,1.3,0.4c0.6,0,1-0.1,1.3-0.4c0.3-0.2,0.4-0.5,0.4-0.8 c0-0.2-0.1-0.4-0.2-0.5c-0.1-0.1-0.3-0.3-0.6-0.4c-0.2-0.1-0.7-0.2-1.4-0.4c-0.9-0.2-1.6-0.5-2-0.8c-0.5-0.5-0.8-1-0.8-1.7 c0-0.4,0.1-0.8,0.4-1.2c0.2-0.4,0.6-0.7,1.1-0.9c0.5-0.2,1-0.3,1.7-0.3c1.1,0,1.9,0.2,2.4,0.7c0.5,0.5,0.8,1.1,0.9,1.9l-1.7,0.1 c-0.1-0.4-0.2-0.8-0.5-1c-0.2-0.2-0.6-0.3-1.1-0.3c-0.5,0-0.9,0.1-1.2,0.3c-0.2,0.1-0.3,0.3-0.3,0.5c0,0.2,0.1,0.4,0.3,0.5 c0.2,0.2,0.8,0.4,1.6,0.6c0.8,0.2,1.5,0.4,1.9,0.6c0.4,0.2,0.7,0.5,0.9,0.9c0.2,0.4,0.3,0.8,0.3,1.4c0,0.5-0.1,1-0.4,1.4 c-0.3,0.4-0.7,0.7-1.2,1c-0.5,0.2-1.1,0.3-1.9,0.3c-1.1,0-1.9-0.3-2.5-0.8C118.9,309.9,118.5,309.2,118.4,308.2z"/><path d="M126.9,311v-8.6h2.8c1.1,0,1.7,0,2.1,0.1c0.5,0.1,0.9,0.4,1.2,0.8c0.3,0.4,0.5,1,0.5,1.7c0,0.5-0.1,1-0.3,1.3 c-0.2,0.4-0.4,0.6-0.7,0.8c-0.3,0.2-0.6,0.3-0.9,0.4c-0.4,0.1-1,0.1-1.8,0.1h-1.1v3.2H126.9z M128.6,303.9v2.4h0.9 c0.7,0,1.1,0,1.4-0.1c0.2-0.1,0.4-0.2,0.5-0.4c0.1-0.2,0.2-0.4,0.2-0.7c0-0.3-0.1-0.6-0.3-0.8s-0.4-0.3-0.7-0.4 c-0.2,0-0.6-0.1-1.2-0.1H128.6z"/><path d="M134.4,308.7l1.6-0.2c0.1,0.4,0.2,0.7,0.4,0.9c0.2,0.2,0.5,0.3,0.8,0.3c0.3,0,0.6-0.1,0.9-0.4c0.2-0.3,0.3-0.6,0.3-1 c0-0.4-0.1-0.7-0.3-1c-0.2-0.2-0.5-0.4-0.8-0.4c-0.2,0-0.5,0-0.8,0.1l0.2-1.3c0.4,0,0.8-0.1,1-0.3c0.2-0.2,0.4-0.5,0.4-0.8 c0-0.3-0.1-0.5-0.3-0.7c-0.2-0.2-0.4-0.3-0.7-0.3c-0.3,0-0.5,0.1-0.7,0.3c-0.2,0.2-0.3,0.5-0.4,0.9l-1.5-0.3 c0.1-0.5,0.3-0.9,0.5-1.2c0.2-0.3,0.5-0.6,0.9-0.7c0.4-0.2,0.8-0.3,1.3-0.3c0.8,0,1.5,0.3,1.9,0.8c0.4,0.4,0.6,0.9,0.6,1.4 c0,0.8-0.4,1.4-1.2,1.8c0.5,0.1,0.9,0.3,1.2,0.7c0.3,0.4,0.4,0.8,0.4,1.3c0,0.8-0.3,1.4-0.8,1.9c-0.6,0.5-1.2,0.8-2.1,0.8 c-0.8,0-1.4-0.2-1.9-0.7C134.8,310,134.5,309.4,134.4,308.7z"/><path d="M146.7,309.5v1.5H141c0.1-0.6,0.3-1.1,0.6-1.6s0.9-1.2,1.9-2.1c0.7-0.7,1.2-1.2,1.4-1.4c0.2-0.3,0.3-0.7,0.3-1 c0-0.4-0.1-0.6-0.3-0.8c-0.2-0.2-0.5-0.3-0.8-0.3c-0.3,0-0.6,0.1-0.8,0.3c-0.2,0.2-0.3,0.6-0.4,1l-1.6-0.2c0.1-0.9,0.4-1.6,0.9-2 c0.5-0.4,1.2-0.6,1.9-0.6c0.8,0,1.5,0.2,2,0.7c0.5,0.5,0.7,1,0.7,1.7c0,0.4-0.1,0.8-0.2,1.1c-0.1,0.3-0.4,0.7-0.7,1.1 c-0.2,0.3-0.6,0.6-1.1,1.1c-0.5,0.5-0.8,0.8-1,0.9c-0.1,0.2-0.3,0.3-0.3,0.5H146.7z"/><path d="M155.5,307.8v-1.4h3.7v3.4c-0.4,0.4-0.9,0.7-1.6,0.9c-0.7,0.3-1.4,0.4-2.1,0.4c-0.9,0-1.7-0.2-2.3-0.6 c-0.7-0.4-1.2-0.9-1.5-1.6c-0.3-0.7-0.5-1.5-0.5-2.3c0-0.9,0.2-1.7,0.6-2.4c0.4-0.7,0.9-1.2,1.6-1.6c0.6-0.3,1.2-0.4,2.1-0.4 c1.1,0,1.9,0.2,2.5,0.7c0.6,0.4,1,1.1,1.2,1.9l-1.7,0.3c-0.1-0.4-0.3-0.8-0.7-1c-0.3-0.2-0.8-0.4-1.3-0.4c-0.8,0-1.4,0.2-1.8,0.7 c-0.4,0.5-0.7,1.2-0.7,2.1c0,1,0.2,1.8,0.7,2.3c0.5,0.5,1,0.8,1.8,0.8c0.4,0,0.7-0.1,1.1-0.2c0.4-0.1,0.7-0.3,0.9-0.5v-1.1H155.5 z"/><path d="M160.9,311v-8.6h2.8c1.1,0,1.7,0,2.1,0.1c0.5,0.1,0.9,0.4,1.2,0.8c0.3,0.4,0.5,1,0.5,1.7c0,0.5-0.1,1-0.3,1.3 c-0.2,0.4-0.4,0.6-0.7,0.8c-0.3,0.2-0.6,0.3-0.9,0.4c-0.4,0.1-1,0.1-1.8,0.1h-1.1v3.2H160.9z M162.6,303.9v2.4h0.9 c0.7,0,1.1,0,1.4-0.1c0.2-0.1,0.4-0.2,0.5-0.4c0.1-0.2,0.2-0.4,0.2-0.7c0-0.3-0.1-0.6-0.3-0.8s-0.4-0.3-0.7-0.4 c-0.2,0-0.6-0.1-1.2-0.1H162.6z"/><path d="M168.8,311v-8.6h1.7v8.6H168.8z"/><path d="M171.9,306.8c0-0.9,0.1-1.6,0.4-2.2c0.2-0.4,0.5-0.8,0.8-1.2c0.3-0.3,0.7-0.6,1.1-0.8c0.5-0.2,1.2-0.3,1.9-0.3 c1.3,0,2.3,0.4,3,1.2c0.8,0.8,1.1,1.9,1.1,3.3c0,1.4-0.4,2.5-1.1,3.3c-0.8,0.8-1.8,1.2-3,1.2c-1.3,0-2.3-0.4-3-1.2 C172.2,309.2,171.9,308.1,171.9,306.8z M173.7,306.7c0,1,0.2,1.7,0.7,2.2c0.4,0.5,1,0.8,1.7,0.8c0.7,0,1.3-0.2,1.7-0.7 c0.4-0.5,0.7-1.2,0.7-2.2c0-1-0.2-1.7-0.6-2.2c-0.4-0.5-1-0.7-1.7-0.7c-0.7,0-1.3,0.2-1.7,0.7C173.9,305,173.7,305.7,173.7,306.7 z"/><path d="M184.9,311v-8.6h2.8c1.1,0,1.7,0,2.1,0.1c0.5,0.1,0.9,0.4,1.2,0.8c0.3,0.4,0.5,1,0.5,1.7c0,0.5-0.1,1-0.3,1.3 c-0.2,0.4-0.4,0.6-0.7,0.8c-0.3,0.2-0.6,0.3-0.9,0.4c-0.4,0.1-1,0.1-1.8,0.1h-1.1v3.2H184.9z M186.6,303.9v2.4h0.9 c0.7,0,1.1,0,1.4-0.1c0.2-0.1,0.4-0.2,0.5-0.4c0.1-0.2,0.2-0.4,0.2-0.7c0-0.3-0.1-0.6-0.3-0.8s-0.4-0.3-0.7-0.4 c-0.2,0-0.6-0.1-1.2-0.1H186.6z"/><path d="M192.8,311v-8.6h1.7v8.6H192.8z"/><path d="M196.2,311v-8.6h1.7l3.5,5.7v-5.7h1.6v8.6h-1.7l-3.5-5.6v5.6H196.2z"/></g><path pointer-events="none" class="st6" d="M190,330h40"/><path pointer-events="none" d="M379 429H381V431H379z"/><path pointer-events="none" class="st1" d="M380,431v18"/><path pointer-events="none" class="st4" d="M210 430H362V444H210z"/><g class="st5"><path d="M208.1,437.8l1.7,0.5c-0.3,0.9-0.7,1.6-1.3,2.1c-0.6,0.5-1.4,0.7-2.3,0.7c-1.1,0-2.1-0.4-2.8-1.2 c-0.7-0.8-1.1-1.8-1.1-3.2c0-1.4,0.4-2.5,1.1-3.3c0.7-0.8,1.7-1.2,2.9-1.2c1.1,0,1.9,0.3,2.6,0.9c0.4,0.4,0.7,0.9,0.9,1.6 l-1.7,0.4c-0.1-0.4-0.3-0.8-0.6-1.1c-0.3-0.3-0.7-0.4-1.2-0.4c-0.6,0-1.2,0.2-1.5,0.7c-0.4,0.5-0.6,1.2-0.6,2.2 c0,1.1,0.2,1.9,0.6,2.3c0.4,0.5,0.9,0.7,1.5,0.7c0.5,0,0.9-0.1,1.2-0.4C207.7,438.9,207.9,438.5,208.1,437.8z"/><path d="M210.8,437.8c0-0.5,0.1-1.1,0.4-1.6s0.7-0.9,1.1-1.2c0.5-0.3,1-0.4,1.7-0.4c0.9,0,1.7,0.3,2.3,0.9 c0.6,0.6,0.9,1.4,0.9,2.3c0,0.9-0.3,1.7-0.9,2.3c-0.6,0.6-1.4,0.9-2.3,0.9c-0.6,0-1.1-0.1-1.6-0.4c-0.5-0.3-0.9-0.6-1.2-1.1 C211,439.1,210.8,438.5,210.8,437.8z M212.5,437.9c0,0.6,0.1,1.1,0.4,1.4c0.3,0.3,0.7,0.5,1.1,0.5c0.4,0,0.8-0.2,1.1-0.5 c0.3-0.3,0.4-0.8,0.4-1.4c0-0.6-0.1-1.1-0.4-1.4c-0.3-0.3-0.7-0.5-1.1-0.5c-0.4,0-0.8,0.2-1.1,0.5 C212.7,436.8,212.5,437.3,212.5,437.9z"/><path d="M224.2,441h-1.6v-3.2c0-0.7,0-1.1-0.1-1.3c-0.1-0.2-0.2-0.4-0.3-0.5c-0.2-0.1-0.3-0.2-0.6-0.2c-0.3,0-0.5,0.1-0.8,0.2 c-0.2,0.2-0.4,0.4-0.5,0.6c-0.1,0.3-0.1,0.7-0.1,1.4v2.8h-1.6v-6.2h1.5v0.9c0.5-0.7,1.2-1.1,2.1-1.1c0.4,0,0.7,0.1,1,0.2 c0.3,0.1,0.5,0.3,0.7,0.5c0.2,0.2,0.3,0.4,0.3,0.7c0.1,0.3,0.1,0.6,0.1,1.1V441z"/><path d="M228.7,434.8v1.3h-1.1v2.5c0,0.5,0,0.8,0,0.9c0,0.1,0.1,0.2,0.1,0.2c0.1,0.1,0.2,0.1,0.3,0.1c0.2,0,0.4-0.1,0.7-0.2 l0.1,1.3c-0.4,0.2-0.8,0.2-1.3,0.2c-0.3,0-0.6-0.1-0.8-0.1c-0.2-0.1-0.4-0.2-0.5-0.4c-0.1-0.2-0.2-0.4-0.2-0.6 c0-0.2-0.1-0.6-0.1-1.2v-2.7h-0.8v-1.3h0.8v-1.2l1.7-1v2.2H228.7z"/><path d="M229.9,433.9v-1.5h1.6v1.5H229.9z M229.9,441v-6.2h1.6v6.2H229.9z"/><path d="M238.9,441h-1.6v-3.2c0-0.7,0-1.1-0.1-1.3c-0.1-0.2-0.2-0.4-0.3-0.5c-0.2-0.1-0.3-0.2-0.6-0.2c-0.3,0-0.5,0.1-0.8,0.2 c-0.2,0.2-0.4,0.4-0.5,0.6c-0.1,0.3-0.1,0.7-0.1,1.4v2.8h-1.6v-6.2h1.5v0.9c0.5-0.7,1.2-1.1,2.1-1.1c0.4,0,0.7,0.1,1,0.2 c0.3,0.1,0.5,0.3,0.7,0.5c0.2,0.2,0.3,0.4,0.3,0.7c0.1,0.3,0.1,0.6,0.1,1.1V441z"/><path d="M244.6,441v-0.9c-0.2,0.3-0.5,0.6-0.9,0.8c-0.4,0.2-0.8,0.3-1.2,0.3c-0.4,0-0.8-0.1-1.1-0.3c-0.3-0.2-0.6-0.4-0.7-0.8 c-0.1-0.3-0.2-0.8-0.2-1.4v-3.9h1.6v2.9c0,0.9,0,1.4,0.1,1.6c0.1,0.2,0.2,0.4,0.3,0.5c0.2,0.1,0.4,0.2,0.6,0.2 c0.3,0,0.5-0.1,0.8-0.2c0.2-0.2,0.4-0.3,0.5-0.6c0.1-0.2,0.1-0.8,0.1-1.7v-2.6h1.6v6.2H244.6z"/><path d="M249.1,436.7l-1.5-0.3c0.2-0.6,0.5-1,0.9-1.3c0.4-0.3,1-0.4,1.8-0.4c0.7,0,1.3,0.1,1.6,0.3c0.4,0.2,0.6,0.4,0.8,0.7 c0.1,0.3,0.2,0.8,0.2,1.5l0,1.9c0,0.5,0,1,0.1,1.2c0.1,0.3,0.2,0.5,0.3,0.8h-1.6c0-0.1-0.1-0.3-0.2-0.5c0-0.1,0-0.2-0.1-0.2 c-0.3,0.3-0.6,0.5-0.9,0.6c-0.3,0.1-0.7,0.2-1,0.2c-0.6,0-1.1-0.2-1.5-0.5c-0.4-0.3-0.6-0.8-0.6-1.3c0-0.4,0.1-0.7,0.3-0.9 c0.2-0.3,0.4-0.5,0.7-0.6c0.3-0.1,0.7-0.3,1.3-0.4c0.8-0.1,1.3-0.3,1.6-0.4v-0.2c0-0.3-0.1-0.5-0.2-0.7c-0.2-0.1-0.5-0.2-0.9-0.2 c-0.3,0-0.5,0.1-0.7,0.2C249.3,436.2,249.2,436.4,249.1,436.7z M251.3,438c-0.2,0.1-0.5,0.2-1,0.3c-0.5,0.1-0.8,0.2-0.9,0.3 c-0.2,0.2-0.3,0.3-0.3,0.6c0,0.2,0.1,0.4,0.3,0.6c0.2,0.2,0.4,0.3,0.7,0.3c0.3,0,0.6-0.1,0.8-0.3c0.2-0.1,0.3-0.3,0.4-0.5 c0-0.1,0.1-0.4,0.1-0.8V438z"/><path d="M257.4,434.8v1.3h-1.1v2.5c0,0.5,0,0.8,0,0.9c0,0.1,0.1,0.2,0.1,0.2c0.1,0.1,0.2,0.1,0.3,0.1c0.2,0,0.4-0.1,0.7-0.2 l0.1,1.3c-0.4,0.2-0.8,0.2-1.3,0.2c-0.3,0-0.6-0.1-0.8-0.1c-0.2-0.1-0.4-0.2-0.5-0.4c-0.1-0.2-0.2-0.4-0.2-0.6 c0-0.2-0.1-0.6-0.1-1.2v-2.7h-0.8v-1.3h0.8v-1.2l1.7-1v2.2H257.4z"/><path d="M258.5,433.9v-1.5h1.6v1.5H258.5z M258.5,441v-6.2h1.6v6.2H258.5z"/><path d="M261.5,437.8c0-0.5,0.1-1.1,0.4-1.6s0.7-0.9,1.1-1.2c0.5-0.3,1-0.4,1.7-0.4c0.9,0,1.7,0.3,2.3,0.9 c0.6,0.6,0.9,1.4,0.9,2.3c0,0.9-0.3,1.7-0.9,2.3c-0.6,0.6-1.4,0.9-2.3,0.9c-0.6,0-1.1-0.1-1.6-0.4c-0.5-0.3-0.9-0.6-1.2-1.1 C261.6,439.1,261.5,438.5,261.5,437.8z M263.2,437.9c0,0.6,0.1,1.1,0.4,1.4c0.3,0.3,0.7,0.5,1.1,0.5c0.4,0,0.8-0.2,1.1-0.5 c0.3-0.3,0.4-0.8,0.4-1.4c0-0.6-0.1-1.1-0.4-1.4c-0.3-0.3-0.7-0.5-1.1-0.5c-0.4,0-0.8,0.2-1.1,0.5 C263.3,436.8,263.2,437.3,263.2,437.9z"/><path d="M274.9,441h-1.6v-3.2c0-0.7,0-1.1-0.1-1.3c-0.1-0.2-0.2-0.4-0.3-0.5c-0.2-0.1-0.3-0.2-0.6-0.2c-0.3,0-0.5,0.1-0.8,0.2 c-0.2,0.2-0.4,0.4-0.5,0.6c-0.1,0.3-0.1,0.7-0.1,1.4v2.8h-1.6v-6.2h1.5v0.9c0.5-0.7,1.2-1.1,2.1-1.1c0.4,0,0.7,0.1,1,0.2 c0.3,0.1,0.5,0.3,0.7,0.5c0.2,0.2,0.3,0.4,0.3,0.7c0.1,0.3,0.1,0.6,0.1,1.1V441z"/><path d="M279.5,437.8c0-0.5,0.1-1.1,0.4-1.6s0.7-0.9,1.1-1.2s1-0.4,1.7-0.4c0.9,0,1.7,0.3,2.3,0.9c0.6,0.6,0.9,1.4,0.9,2.3 c0,0.9-0.3,1.7-0.9,2.3c-0.6,0.6-1.4,0.9-2.3,0.9c-0.6,0-1.1-0.1-1.6-0.4c-0.5-0.3-0.9-0.6-1.2-1.1 C279.6,439.1,279.5,438.5,279.5,437.8z M281.2,437.9c0,0.6,0.1,1.1,0.4,1.4c0.3,0.3,0.7,0.5,1.1,0.5c0.4,0,0.8-0.2,1.1-0.5 c0.3-0.3,0.4-0.8,0.4-1.4c0-0.6-0.1-1.1-0.4-1.4c-0.3-0.3-0.7-0.5-1.1-0.5c-0.4,0-0.8,0.2-1.1,0.5 C281.3,436.8,281.2,437.3,281.2,437.9z"/><path d="M286.5,434.8h0.9v-0.5c0-0.5,0.1-0.9,0.2-1.2c0.1-0.3,0.3-0.5,0.6-0.6c0.3-0.2,0.7-0.2,1.1-0.2c0.5,0,0.9,0.1,1.4,0.2 l-0.2,1.1c-0.3-0.1-0.5-0.1-0.8-0.1c-0.2,0-0.4,0.1-0.5,0.2c-0.1,0.1-0.2,0.3-0.2,0.6v0.4h1.2v1.3H289v4.9h-1.6v-4.9h-0.9V434.8z"/><path d="M294.4,441v-8.6h1.6v3.1c0.5-0.6,1.1-0.9,1.8-0.9c0.8,0,1.4,0.3,1.9,0.8c0.5,0.5,0.7,1.3,0.7,2.4c0,1.1-0.3,1.9-0.8,2.5 c-0.5,0.6-1.1,0.9-1.8,0.9c-0.4,0-0.7-0.1-1.1-0.3s-0.6-0.4-0.9-0.8v0.9H294.4z M296.1,437.8c0,0.6,0.1,1.1,0.3,1.4 c0.3,0.4,0.7,0.7,1.1,0.7c0.4,0,0.7-0.2,0.9-0.5c0.3-0.3,0.4-0.8,0.4-1.5c0-0.7-0.1-1.2-0.4-1.5c-0.3-0.3-0.6-0.5-1-0.5 c-0.4,0-0.7,0.2-1,0.5C296.2,436.7,296.1,437.1,296.1,437.8z"/><path d="M305.9,441v-0.9c-0.2,0.3-0.5,0.6-0.9,0.8c-0.4,0.2-0.8,0.3-1.2,0.3c-0.4,0-0.8-0.1-1.1-0.3c-0.3-0.2-0.6-0.4-0.7-0.8 c-0.1-0.3-0.2-0.8-0.2-1.4v-3.9h1.6v2.9c0,0.9,0,1.4,0.1,1.6c0.1,0.2,0.2,0.4,0.3,0.5c0.2,0.1,0.4,0.2,0.6,0.2 c0.3,0,0.5-0.1,0.8-0.2c0.2-0.2,0.4-0.3,0.5-0.6c0.1-0.2,0.1-0.8,0.1-1.7v-2.6h1.6v6.2H305.9z"/><path d="M312,434.8v1.3h-1.1v2.5c0,0.5,0,0.8,0,0.9c0,0.1,0.1,0.2,0.1,0.2c0.1,0.1,0.2,0.1,0.3,0.1c0.2,0,0.4-0.1,0.7-0.2 l0.1,1.3c-0.4,0.2-0.8,0.2-1.3,0.2c-0.3,0-0.6-0.1-0.8-0.1c-0.2-0.1-0.4-0.2-0.5-0.4c-0.1-0.2-0.2-0.4-0.2-0.6 c0-0.2-0.1-0.6-0.1-1.2v-2.7h-0.8v-1.3h0.8v-1.2l1.7-1v2.2H312z"/><path d="M316,434.8v1.3h-1.1v2.5c0,0.5,0,0.8,0,0.9c0,0.1,0.1,0.2,0.1,0.2c0.1,0.1,0.2,0.1,0.3,0.1c0.2,0,0.4-0.1,0.7-0.2 l0.1,1.3c-0.4,0.2-0.8,0.2-1.3,0.2c-0.3,0-0.6-0.1-0.8-0.1c-0.2-0.1-0.4-0.2-0.5-0.4c-0.1-0.2-0.2-0.4-0.2-0.6 c0-0.2-0.1-0.6-0.1-1.2v-2.7h-0.8v-1.3h0.8v-1.2l1.7-1v2.2H316z"/><path d="M316.8,437.8c0-0.5,0.1-1.1,0.4-1.6s0.7-0.9,1.1-1.2c0.5-0.3,1-0.4,1.7-0.4c0.9,0,1.7,0.3,2.3,0.9 c0.6,0.6,0.9,1.4,0.9,2.3c0,0.9-0.3,1.7-0.9,2.3c-0.6,0.6-1.4,0.9-2.3,0.9c-0.6,0-1.1-0.1-1.6-0.4c-0.5-0.3-0.9-0.6-1.2-1.1 C316.9,439.1,316.8,438.5,316.8,437.8z M318.5,437.9c0,0.6,0.1,1.1,0.4,1.4c0.3,0.3,0.7,0.5,1.1,0.5s0.8-0.2,1.1-0.5 c0.3-0.3,0.4-0.8,0.4-1.4c0-0.6-0.1-1.1-0.4-1.4c-0.3-0.3-0.7-0.5-1.1-0.5s-0.8,0.2-1.1,0.5C318.6,436.8,318.5,437.3,318.5,437.9 z"/><path d="M330.2,441h-1.6v-3.2c0-0.7,0-1.1-0.1-1.3c-0.1-0.2-0.2-0.4-0.3-0.5c-0.2-0.1-0.3-0.2-0.6-0.2c-0.3,0-0.5,0.1-0.8,0.2 c-0.2,0.2-0.4,0.4-0.5,0.6c-0.1,0.3-0.1,0.7-0.1,1.4v2.8h-1.6v-6.2h1.5v0.9c0.5-0.7,1.2-1.1,2.1-1.1c0.4,0,0.7,0.1,1,0.2 c0.3,0.1,0.5,0.3,0.7,0.5c0.2,0.2,0.3,0.4,0.3,0.7c0.1,0.3,0.1,0.6,0.1,1.1V441z"/><path d="M340.6,436.6l-1.6,0.3c-0.1-0.3-0.2-0.6-0.4-0.7c-0.2-0.2-0.4-0.2-0.8-0.2c-0.4,0-0.7,0.1-1,0.4 c-0.2,0.3-0.4,0.8-0.4,1.4c0,0.7,0.1,1.3,0.4,1.6c0.2,0.3,0.6,0.5,1,0.5c0.3,0,0.6-0.1,0.8-0.3c0.2-0.2,0.3-0.5,0.4-0.9l1.6,0.3 c-0.2,0.7-0.5,1.3-1,1.7c-0.5,0.4-1.1,0.6-1.9,0.6c-0.9,0-1.6-0.3-2.2-0.9c-0.5-0.6-0.8-1.4-0.8-2.4c0-1,0.3-1.8,0.8-2.4 c0.5-0.6,1.3-0.9,2.2-0.9c0.8,0,1.4,0.2,1.8,0.5C340.1,435.5,340.4,435.9,340.6,436.6z"/><path d="M341.8,433.9v-1.5h1.6v1.5H341.8z M341.8,441v-6.2h1.6v6.2H341.8z"/><path d="M346.7,441h-1.6v-6.2h1.5v0.9c0.3-0.4,0.5-0.7,0.7-0.8c0.2-0.1,0.4-0.2,0.7-0.2c0.4,0,0.7,0.1,1.1,0.3l-0.5,1.4 c-0.3-0.2-0.5-0.3-0.8-0.3c-0.2,0-0.4,0.1-0.6,0.2c-0.2,0.1-0.3,0.4-0.4,0.7c-0.1,0.3-0.1,1-0.1,2.1V441z"/><path d="M355.3,436.6l-1.6,0.3c-0.1-0.3-0.2-0.6-0.4-0.7c-0.2-0.2-0.4-0.2-0.8-0.2c-0.4,0-0.7,0.1-1,0.4 c-0.2,0.3-0.4,0.8-0.4,1.4c0,0.7,0.1,1.3,0.4,1.6c0.2,0.3,0.6,0.5,1,0.5c0.3,0,0.6-0.1,0.8-0.3c0.2-0.2,0.3-0.5,0.4-0.9l1.6,0.3 c-0.2,0.7-0.5,1.3-1,1.7c-0.5,0.4-1.1,0.6-1.9,0.6c-0.9,0-1.6-0.3-2.2-0.9c-0.5-0.6-0.8-1.4-0.8-2.4c0-1,0.3-1.8,0.8-2.4 c0.5-0.6,1.3-0.9,2.2-0.9c0.8,0,1.4,0.2,1.8,0.5C354.7,435.5,355.1,435.9,355.3,436.6z"/><path d="M360.6,441v-0.9c-0.2,0.3-0.5,0.6-0.9,0.8c-0.4,0.2-0.8,0.3-1.2,0.3c-0.4,0-0.8-0.1-1.1-0.3c-0.3-0.2-0.6-0.4-0.7-0.8 c-0.1-0.3-0.2-0.8-0.2-1.4v-3.9h1.6v2.9c0,0.9,0,1.4,0.1,1.6c0.1,0.2,0.2,0.4,0.3,0.5c0.2,0.1,0.4,0.2,0.6,0.2 c0.3,0,0.5-0.1,0.8-0.2c0.2-0.2,0.4-0.3,0.5-0.6c0.1-0.2,0.1-0.8,0.1-1.7v-2.6h1.6v6.2H360.6z"/><path d="M363.8,433.9v-1.5h1.6v1.5H363.8z M363.8,441v-6.2h1.6v6.2H363.8z"/><path d="M370,434.8v1.3h-1.1v2.5c0,0.5,0,0.8,0,0.9c0,0.1,0.1,0.2,0.1,0.2c0.1,0.1,0.2,0.1,0.3,0.1c0.2,0,0.4-0.1,0.7-0.2 l0.1,1.3c-0.4,0.2-0.8,0.2-1.3,0.2c-0.3,0-0.6-0.1-0.8-0.1c-0.2-0.1-0.4-0.2-0.5-0.4c-0.1-0.2-0.2-0.4-0.2-0.6 c0-0.2-0.1-0.6-0.1-1.2v-2.7h-0.8v-1.3h0.8v-1.2l1.7-1v2.2H370z"/></g><path pointer-events="none" class="st6" d="M380,430v-70l0,0"/></g></svg>