<svg version="1.1" id="Layer_1" xmlns="http://www.w3.org/2000/svg" x="0px" y="0px" viewBox="0 0 1202 803.7" xml:space="preserve" enable-background="new 0 0 1202 803.7"><style type="text/css">.st0{filter:url(#AI_GaussianBlur_4);} .st1{fill:#414042;stroke:#414042;stroke-miterlimit:10;} .st2{fill:#AFDFE4;} .st3{fill:#00B0D8;} .st4{fill:#ACDFEA;} .st5{fill:none;stroke:#00B0D8;stroke-width:2;} .st6{fill:none;stroke:#662D91;stroke-width:2;} .st7{fill:none;stroke:#00B0D8;stroke-width:4;} .st8{fill:none;stroke:#662D91;stroke-width:4;} .st9{fill:none;stroke:#AFDFE4;stroke-width:0.25;}</style><filter id="AI_GaussianBlur_4"><feGaussianBlur stdDeviation="2"/></filter><g id="Layer_1" class="st0"><path class="st1" d="M0.5 0.5H1201.5V803.2H0.5z"/><path class="st2" d="M259.1,425.1c0,27.1,0,54.1,0,81.2c0,3.9,0,7.8,0,11.6c0,0.7,1.1,0.7,1.1,0c0-27.1,0-54.1,0-81.2 c0-3.9,0-7.8,0-11.6C260.2,424.5,259.1,424.5,259.1,425.1L259.1,425.1z"/><path class="st2" d="M315.2,427.5c0,25.7,0,51.3,0,77c0,3.7,0,7.4,0,11.1c0,0.7,1.1,0.7,1.1,0c0-25.7,0-51.3,0-77 c0-3.7,0-7.4,0-11.1C316.2,426.8,315.2,426.8,315.2,427.5L315.2,427.5z"/><path class="st2" d="M394.2,429.5c0,24.9,0,49.9,0,74.8c0,3.6,0,7.1,0,10.7c0,0.7,1,0.7,1,0c0-24.9,0-49.9,0-74.8 c0-3.6,0-7.1,0-10.7C395.2,428.8,394.2,428.8,394.2,429.5L394.2,429.5z"/><path class="st2" d="M173.7,463.2c0,16.9,0,33.8,0,50.7c0,0.7,1,0.7,1,0c0-16.9,0-33.8,0-50.7 C174.7,462.6,173.7,462.6,173.7,463.2L173.7,463.2z"/><path class="st2" d="M73.2,518.1c0-28.7,0-57.4,0-86.1c0-4.2,0-8.3,0-12.5c0-0.7-1-0.7-1,0c0,28.7,0,57.4,0,86.1 c0,4.2,0,8.3,0,12.5C72.2,518.8,73.2,518.8,73.2,518.1L73.2,518.1z"/><path class="st2" d="M235.6,401.1c-18,18-35.9,35.9-53.9,53.9c-2.6,2.6-5.3,5.3-7.9,7.9c-0.5,0.5,0.3,1.2,0.7,0.7 c18-18,35.9-35.9,53.9-53.9c2.6-2.6,5.3-5.3,7.9-7.9C236.8,401.4,236.1,400.6,235.6,401.1L235.6,401.1z"/><path class="st2" d="M512.5,513.4c-14.2,14.2-28.4,28.4-42.6,42.6c-0.8,0.8,0.4,2,1.2,1.2c14.2-14.2,28.4-28.4,42.6-42.6 C514.5,513.8,513.3,512.6,512.5,513.4L512.5,513.4z"/><path class="st2" d="M555.1,513.4c-14.2,14.2-28.4,28.4-42.6,42.6c-0.8,0.8,0.4,2,1.2,1.2c14.2-14.2,28.4-28.4,42.6-42.6 C557.2,513.8,555.9,512.6,555.1,513.4L555.1,513.4z"/><path class="st2" d="M597.8,513.4c-14.2,14.2-28.4,28.4-42.6,42.6c-0.8,0.8,0.4,2,1.2,1.2c14.2-14.2,28.4-28.4,42.6-42.6 C599.8,513.8,598.6,512.6,597.8,513.4L597.8,513.4z"/><path class="st2" d="M640.4,513.4c-14.2,14.2-28.4,28.4-42.6,42.6c-0.8,0.8,0.4,2,1.2,1.2c14.2-14.2,28.4-28.4,42.6-42.6 C642.5,513.8,641.2,512.6,640.4,513.4L640.4,513.4z"/><path class="st2" d="M853.5,144.9c24.9,33.2,49.8,66.4,74.7,99.7c3.5,4.7,7,9.4,10.5,14c0.7,0.9,2.2,0,1.5-0.9 c-24.9-33.2-49.8-66.4-74.7-99.7c-3.5-4.7-7-9.4-10.5-14C854.3,143.1,852.8,144,853.5,144.9L853.5,144.9z"/><path class="st2" d="M938.7,258.1c0,49.9,0,99.8,0,149.6c0,7,0,13.9,0,20.9c0,1.1,1.8,1.1,1.8,0c0-49.9,0-99.8,0-149.6 c0-7,0-13.9,0-20.9C940.4,257,938.7,257,938.7,258.1L938.7,258.1z"/><path class="st2" d="M938.9,428.1c-24.9,24.9-49.8,49.8-74.6,74.6c-3.6,3.6-7.1,7.1-10.7,10.7c-0.8,0.8,0.4,2,1.2,1.2 c24.9-24.9,49.8-49.8,74.6-74.6c3.6-3.6,7.1-7.1,10.7-10.7C940.9,428.5,939.7,427.3,938.9,428.1L938.9,428.1z"/><path class="st3" d="M854.2,513.1c-38.5,0-77,0-115.5,0c-61.3,0-122.5,0-183.8,0c-13.9,0-27.9,0-41.8,0c-1.1,0-1.1,1.8,0,1.8 c38.5,0,77,0,115.5,0c61.3,0,122.5,0,183.8,0c13.9,0,27.9,0,41.8,0C855.4,514.9,855.4,513.1,854.2,513.1L854.2,513.1z"/><path class="st2" d="M469.6,556.6c0,27.7,0,55.4,0,83c0,44.1,0,88.2,0,132.3c0,10.1,0,20.2,0,30.3c0,1.1,1.8,1.1,1.8,0 c0-27.7,0-55.4,0-83c0-44.1,0-88.2,0-132.3c0-10.1,0-20.2,0-30.3C471.4,555.5,469.6,555.5,469.6,556.6L469.6,556.6z"/><path class="st2" d="M896.1,144.9c24.9,33.2,49.8,66.4,74.7,99.7c3.5,4.7,7,9.4,10.5,14c0.7,0.9,2.2,0,1.5-0.9 c-24.9-33.2-49.8-66.4-74.7-99.7c-3.5-4.7-7-9.4-10.5-14C897,143.1,895.5,144,896.1,144.9L896.1,144.9z"/><path class="st2" d="M981.3,258.1c0,49.9,0,99.8,0,149.6c0,7,0,13.9,0,20.9c0,1.1,1.8,1.1,1.8,0c0-49.9,0-99.8,0-149.6 c0-7,0-13.9,0-20.9C983,257,981.3,257,981.3,258.1L981.3,258.1z"/><path class="st2" d="M981.5,428.1c-24.9,24.9-49.8,49.8-74.6,74.6c-3.6,3.6-7.1,7.1-10.7,10.7c-0.8,0.8,0.4,2,1.2,1.2 c24.9-24.9,49.8-49.8,74.6-74.6c3.6-3.6,7.1-7.1,10.7-10.7C983.6,428.5,982.3,427.3,981.5,428.1L981.5,428.1z"/><path class="st3" d="M896.9,513.1c-38.5,0-77,0-115.5,0c-61.3,0-122.5,0-183.8,0c-13.9,0-27.9,0-41.8,0c-1.1,0-1.1,1.8,0,1.8 c38.5,0,77,0,115.5,0c61.3,0,122.5,0,183.8,0c13.9,0,27.9,0,41.8,0C898,514.9,898,513.1,896.9,513.1L896.9,513.1z"/><path class="st2" d="M512.3,556.6c0,27.7,0,55.4,0,83c0,44.1,0,88.2,0,132.3c0,10.1,0,20.2,0,30.3c0,1.1,1.8,1.1,1.8,0 c0-27.7,0-55.4,0-83c0-44.1,0-88.2,0-132.3c0-10.1,0-20.2,0-30.3C514,555.5,512.3,555.5,512.3,556.6L512.3,556.6z"/><path class="st2" d="M938.8,144.9c24.9,33.2,49.8,66.4,74.7,99.7c3.5,4.7,7,9.4,10.5,14c0.7,0.9,2.2,0,1.5-0.9 c-24.9-33.2-49.8-66.4-74.7-99.7c-3.5-4.7-7-9.4-10.5-14C939.6,143.1,938.1,144,938.8,144.9L938.8,144.9z"/><path class="st2" d="M1023.9,258.1c0,49.9,0,99.8,0,149.6c0,7,0,13.9,0,20.9c0,1.1,1.8,1.1,1.8,0c0-49.9,0-99.8,0-149.6 c0-7,0-13.9,0-20.9C1025.7,257,1023.9,257,1023.9,258.1L1023.9,258.1z"/><path class="st2" d="M1024.2,428.1c-24.9,24.9-49.7,49.8-74.6,74.6c-3.6,3.6-7.1,7.1-10.7,10.7c-0.8,0.8,0.4,2,1.2,1.2 c24.9-24.9,49.7-49.8,74.6-74.6c3.6-3.6,7.1-7.1,10.7-10.7C1026.2,428.5,1025,427.3,1024.2,428.1L1024.2,428.1z"/><path class="st3" d="M939.5,513.1c-38.5,0-77,0-115.5,0c-61.3,0-122.5,0-183.8,0c-13.9,0-27.9,0-41.8,0c-1.1,0-1.1,1.8,0,1.8 c38.5,0,77,0,115.5,0c61.3,0,122.5,0,183.8,0c13.9,0,27.9,0,41.8,0C940.7,514.9,940.7,513.1,939.5,513.1L939.5,513.1z"/><path class="st2" d="M554.9,556.6c0,27.7,0,55.4,0,83c0,44.1,0,88.2,0,132.3c0,10.1,0,20.2,0,30.3c0,1.1,1.8,1.1,1.8,0 c0-27.7,0-55.4,0-83c0-44.1,0-88.2,0-132.3c0-10.1,0-20.2,0-30.3C556.6,555.5,554.9,555.5,554.9,556.6L554.9,556.6z"/><path class="st2" d="M981.4,144.9c24.9,33.2,49.8,66.4,74.7,99.7c3.5,4.7,7,9.4,10.5,14c0.7,0.9,2.2,0,1.5-0.9 c-24.9-33.2-49.8-66.4-74.7-99.7c-3.5-4.7-7-9.4-10.5-14C982.3,143.1,980.7,144,981.4,144.9L981.4,144.9z"/><path class="st2" d="M1066.6,258.1c0,49.9,0,99.8,0,149.6c0,7,0,13.9,0,20.9c0,1.1,1.8,1.1,1.8,0c0-49.9,0-99.8,0-149.6 c0-7,0-13.9,0-20.9C1068.3,257,1066.6,257,1066.6,258.1L1066.6,258.1z"/><path class="st2" d="M1066.8,428.1c-24.9,24.9-49.7,49.8-74.6,74.6c-3.6,3.6-7.1,7.1-10.7,10.7c-0.8,0.8,0.4,2,1.2,1.2 c24.9-24.9,49.7-49.8,74.6-74.6c3.6-3.6,7.1-7.1,10.7-10.7C1068.9,428.5,1067.6,427.3,1066.8,428.1L1066.8,428.1z"/><path class="st3" d="M982.2,513.1c-38.5,0-77,0-115.5,0c-61.3,0-122.5,0-183.8,0c-13.9,0-27.9,0-41.8,0c-1.1,0-1.1,1.8,0,1.8 c38.5,0,77,0,115.5,0c61.3,0,122.5,0,183.8,0c13.9,0,27.9,0,41.8,0C983.3,514.9,983.3,513.1,982.2,513.1L982.2,513.1z"/><path class="st2" d="M597.5,556.6c0,27.7,0,55.4,0,83c0,44.1,0,88.2,0,132.3c0,10.1,0,20.2,0,30.3c0,1.1,1.8,1.1,1.8,0 c0-27.7,0-55.4,0-83c0-44.1,0-88.2,0-132.3c0-10.1,0-20.2,0-30.3C599.3,555.5,597.5,555.5,597.5,556.6L597.5,556.6z"/><path class="st2" d="M235.4,258.1c0,41.9,0,83.8,0,125.8c0,5.9,0,11.7,0,17.6c0,0.7,1.1,0.7,1.1,0c0-41.9,0-83.8,0-125.8 c0-5.9,0-11.7,0-17.6C236.5,257.5,235.4,257.5,235.4,258.1L235.4,258.1z"/><path class="st2" d="M235.6,401.8c7.9,7.9,15.8,15.8,23.7,23.7c0.5,0.5,1.2-0.3,0.7-0.7c-7.9-7.9-15.8-15.8-23.7-23.7 C235.9,400.6,235.1,401.4,235.6,401.8L235.6,401.8z"/><path class="st2" d="M316.1,427.1c-23.3-23.3-46.5-46.5-69.8-69.8c-3.3-3.3-6.6-6.6-9.9-9.9c-0.5-0.5-1.2,0.3-0.7,0.7 c23.3,23.3,46.5,46.5,69.8,69.8c3.3,3.3,6.6,6.6,9.9,9.9C315.8,428.4,316.6,427.6,316.1,427.1L316.1,427.1z"/><path class="st2" d="M395.1,429.1c-17.9-17.9-35.8-35.8-53.6-53.6c-28.5-28.5-57-57-85.5-85.5c-6.5-6.5-13.1-13.1-19.6-19.6 c-0.5-0.5-1.2,0.3-0.7,0.7c17.9,17.9,35.8,35.8,53.6,53.6c28.5,28.5,57,57,85.5,85.5c6.5,6.5,13.1,13.1,19.6,19.6 C394.8,430.3,395.5,429.6,395.1,429.1L395.1,429.1z"/><path class="st2" d="M150.2,258.1c0,27.8,0,55.7,0,83.5c0,0.7,1.1,0.7,1.1,0c0-27.8,0-55.7,0-83.5 C151.2,257.5,150.2,257.5,150.2,258.1L150.2,258.1z"/><path class="st3" d="M598.4,173.7c47.1,0,94.2,0,141.3,0c6.6,0,13.2,0,19.8,0c1.1,0,1.1-1.8,0-1.8c-47.1,0-94.2,0-141.3,0 c-6.6,0-13.2,0-19.8,0C597.3,172,597.3,173.7,598.4,173.7L598.4,173.7z"/><path class="st3" d="M944.3,175.3c47.1,0,94.2,0,141.3,0c6.6,0,13.2,0,19.8,0c1.1,0,1.1-1.8,0-1.8c-47.1,0-94.2,0-141.3,0 c-6.6,0-13.2,0-19.8,0C943.1,173.6,943.1,175.3,944.3,175.3L944.3,175.3z"/><path class="st3" d="M513.1,172c-37.4,0-74.8,0-112.2,0c-5.2,0-10.5,0-15.7,0c-1.1,0-1.1,1.8,0,1.8c37.4,0,74.8,0,112.2,0 c5.2,0,10.5,0,15.7,0C514.3,173.7,514.3,172,513.1,172L513.1,172z"/><path class="st4" d="M0.8,89.4c14.4,14.2,28.7,28.4,43.1,42.7c23,22.8,46,45.6,69.1,68.4c5.3,5.2,10.5,10.4,15.8,15.6 c0.8,0.8,2-0.4,1.2-1.2c-14.4-14.2-28.7-28.4-43.1-42.7c-23-22.8-46-45.6-69.1-68.4C12.6,98.6,7.3,93.4,2.1,88.1 C1.3,87.4,0,88.6,0.8,89.4L0.8,89.4z"/><path class="st4" d="M0.8,2.9C24.9,27,49,51.1,73,75.1c38.3,38.3,76.6,76.6,114.9,114.9c8.7,8.7,17.4,17.4,26.1,26.1 c0.8,0.8,2-0.4,1.2-1.2c-24.1-24.1-48.1-48.1-72.2-72.2C104.8,104.4,66.5,66.1,28.2,27.8C19.5,19.1,10.8,10.4,2.1,1.7 C1.3,0.9,0,2.1,0.8,2.9L0.8,2.9z"/><path class="st4" d="M85.4,3.6C98.2,15,111,26.4,123.8,37.7c30.5,27.1,60.9,54.2,91.4,81.3c37,32.9,73.9,65.7,110.9,98.6 c32,28.4,63.9,56.8,95.9,85.2c10.5,9.3,21,18.7,31.5,28c4.9,4.4,9.7,9.5,15.1,13.4c0.2,0.2,0.4,0.4,0.7,0.6 c1.8,1.6,4.4-1,2.6-2.6c-12.8-11.4-25.6-22.8-38.4-34.1c-30.5-27.1-60.9-54.2-91.4-81.3c-37-32.9-73.9-65.7-110.9-98.6 c-32-28.4-63.9-56.8-95.9-85.2c-10.5-9.3-21-18.7-31.5-28C98.8,10.6,94,5.5,88.7,1.6C88.5,1.4,88.3,1.2,88,1 C86.3-0.6,83.6,2,85.4,3.6L85.4,3.6z"/><path class="st4" d="M554.5,430c19.3,17.1,38.5,34.2,57.8,51.3c30.6,27.2,61.1,54.3,91.7,81.5c7.1,6.3,14.1,12.5,21.2,18.8 c1.8,1.6,4.4-1,2.6-2.6c-19.3-17.1-38.5-34.2-57.8-51.3c-30.6-27.2-61.1-54.3-91.7-81.5c-7.1-6.3-14.1-12.5-21.2-18.8 C555.3,425.8,552.7,428.4,554.5,430L554.5,430z"/><circle class="st5" cx="236" cy="236.8" r="21.3"/><circle class="st6" cx="1131.4" cy="172.3" r="21.3"/><path class="st2" d="M427.9,429.6c28.4,0,56.9,0,85.3,0c1.1,0,1.1-1.8,0-1.8c-28.4,0-56.9,0-85.3,0 C426.7,427.8,426.7,429.6,427.9,429.6L427.9,429.6z"/><path class="st2" d="M513.1,344.3c28.4,0,56.9,0,85.3,0c1.1,0,1.1-1.8,0-1.8c-28.4,0-56.9,0-85.3,0 C512,342.5,512,344.3,513.1,344.3L513.1,344.3z"/><path class="st4" d="M726.3,581.6c15.6,0,31.1,0,46.7,0c37.4,0,74.7,0,112.1,0c45,0,90.1,0,135.1,0c39.1,0,78.2,0,117.3,0 c12.9,0,25.7,0,38.6,0c6,0,12.5,0.7,18.5,0c0.3,0,0.5,0,0.8,0c2.4,0,2.4-3.7,0-3.7c-15.6,0-31.1,0-46.7,0c-37.4,0-74.7,0-112.1,0 c-45,0-90.1,0-135.1,0c-39.1,0-78.2,0-117.3,0c-12.9,0-25.7,0-38.6,0c-6,0-12.5-0.7-18.5,0c-0.3,0-0.5,0-0.8,0 C723.9,577.9,723.9,581.6,726.3,581.6L726.3,581.6z"/><path class="st4" d="M1.5,637.4c14.3,0,28.7,0,43,0c34.2,0,68.5,0,102.7,0c41.6,0,83.2,0,124.8,0c35.8,0,71.6,0,107.5,0 c11.8,0,23.6,0,35.5,0c3.7,0,7.5,0,11.2,0c1.7,0,4.1,0.4,5.8,0c0.2-0.1,0.5,0,0.7,0c1.1,0,1.1-1.8,0-1.8c-14.3,0-28.7,0-43,0 c-34.2,0-68.5,0-102.7,0c-41.6,0-83.2,0-124.8,0c-35.8,0-71.6,0-107.5,0c-11.8,0-23.6,0-35.5,0c-3.7,0-7.5,0-11.2,0 c-1.7,0-4.1-0.4-5.8,0c-0.2,0.1-0.5,0-0.7,0C0.3,635.7,0.3,637.4,1.5,637.4L1.5,637.4z"/><circle class="st7" cx="513.1" cy="386.1" r="42.6"/><circle class="st8" cx="555.8" cy="172.9" r="42.6"/><path class="st2" d="M256.7,258.8c19.2,19.2,38.3,38.3,57.5,57.5c30.7,30.7,61.3,61.3,92,92c7,7,14,14,21.1,21.1 c0.8,0.8,2-0.4,1.2-1.2c-19.2-19.2-38.3-38.3-57.5-57.5c-30.7-30.7-61.3-61.3-92-92c-7-7-14-14-21.1-21.1 C257.1,256.7,255.9,258,256.7,258.8L256.7,258.8z"/><path class="st2" d="M599,344c14.4-14.4,28.8-28.8,43.1-43.1c23-23,45.9-45.9,68.9-68.9c5.3-5.3,10.6-10.6,15.9-15.9 c0.8-0.8-0.4-2-1.2-1.2c-14.4,14.4-28.8,28.8-43.1,43.1c-23,23-45.9,45.9-68.9,68.9c-5.3,5.3-10.6,10.6-15.9,15.9 C597,343.6,598.2,344.8,599,344L599,344z"/><path class="st2" d="M727.2,215.5c0-24.1,0-48.1,0-72.2c0-38.2,0-76.4,0-114.5c0-8.8,0-17.7,0-26.5c0-1.1-1.8-1.1-1.8,0 c0,24.1,0,48.1,0,72.2c0,38.2,0,76.4,0,114.5c0,8.8,0,17.7,0,26.5C725.5,216.6,727.2,216.6,727.2,215.5L727.2,215.5z"/><path class="st2" d="M682.8,2.3c0,24.1,0,48.1,0,72.2c0,38.2,0,76.4,0,114.5c0,8.8,0,17.7,0,26.5c0,1.1,1.8,1.1,1.8,0 c0-24.1,0-48.1,0-72.2c0-38.2,0-76.4,0-114.5c0-8.8,0-17.7,0-26.5C684.6,1.2,682.8,1.2,682.8,2.3L682.8,2.3z"/><path class="st2" d="M683.1,214.9c-24.9,24.9-49.8,49.8-74.6,74.6c-3.6,3.6-7.1,7.1-10.7,10.7c-0.8,0.8,0.4,2,1.2,1.2 c24.9-24.9,49.8-49.8,74.6-74.6c3.6-3.6,7.1-7.1,10.7-10.7C685.1,215.3,683.9,214.1,683.1,214.9L683.1,214.9z"/><path class="st2" d="M598.4,299.9c-28.4,0-56.9,0-85.3,0c-1.1,0-1.1,1.8,0,1.8c28.4,0,56.9,0,85.3,0 C599.5,301.7,599.5,299.9,598.4,299.9L598.4,299.9z"/><path class="st9" d="M513.1 300.8L513.1 300.8"/><path class="st2" d="M640.2,2.3c0,24.1,0,48.1,0,72.2c0,38.2,0,76.4,0,114.5c0,8.8,0,17.7,0,26.5c0,1.1,1.8,1.1,1.8,0 c0-24.1,0-48.1,0-72.2c0-38.2,0-76.4,0-114.5c0-8.8,0-17.7,0-26.5C641.9,1.2,640.2,1.2,640.2,2.3L640.2,2.3z"/><path class="st2" d="M640.4,214.9c-14.2,14.2-28.4,28.4-42.6,42.6c-0.8,0.8,0.4,2,1.2,1.2c14.2-14.2,28.4-28.4,42.6-42.6 C642.5,215.3,641.2,214.1,640.4,214.9L640.4,214.9z"/><path class="st2" d="M490.1,278.3c-18.2-18.2-36.4-36.4-54.6-54.6c-2.6-2.6-5.2-5.2-7.9-7.9c-0.8-0.8-2,0.4-1.2,1.2 c18.2,18.2,36.4,36.4,54.6,54.6c2.6,2.6,5.2,5.2,7.9,7.9C489.6,280.3,490.9,279,490.1,278.3L490.1,278.3z"/><path class="st2" d="M513.7,257.5c-14.5-13.9-29-27.8-43.5-41.8c-0.8-0.8-2.1,0.5-1.2,1.2c14.5,13.9,29,27.8,43.5,41.8 C513.3,259.5,514.6,258.3,513.7,257.5L513.7,257.5z"/><path class="st2" d="M598.4,257.3c-28.4,0-56.9,0-85.3,0c-1.1,0-1.1,1.8,0,1.8c28.4,0,56.9,0,85.3,0 C599.5,259,599.5,257.3,598.4,257.3L598.4,257.3z"/><circle class="st5" cx="513.1" cy="279.8" r="21.3"/><path class="st2" d="M427.8,216.4c0-14.5,0-29,0-43.5c0-1.1-1.8-1.1-1.8,0c0,14.5,0,29,0,43.5 C426.1,217.5,427.8,217.5,427.8,216.4L427.8,216.4z"/><path class="st2" d="M428.5,130.8c14.2-14.2,28.4-28.4,42.6-42.6c0.8-0.8-0.4-2-1.2-1.2c-14.2,14.2-28.4,28.4-42.6,42.6 C426.4,130.4,427.7,131.6,428.5,130.8L428.5,130.8z"/><path class="st2" d="M471.4,87.6c0-28.4,0-56.9,0-85.3c0-1.1-1.8-1.1-1.8,0c0,28.4,0,56.9,0,85.3 C469.6,88.7,471.4,88.7,471.4,87.6L471.4,87.6z"/><path class="st2" d="M427.8,172.9c0.3-14.2,0.6-28.4,0.9-42.6c0-1.1-1.7-1.1-1.8,0c-0.3,14.2-0.6,28.4-0.9,42.6 C426.1,174,427.8,174,427.8,172.9L427.8,172.9z"/><path class="st2" d="M470.5,216.4c0-14.5,0-29,0-43.5c0-1.1-1.8-1.1-1.8,0c0,14.5,0,29,0,43.5 C468.7,217.5,470.5,217.5,470.5,216.4L470.5,216.4z"/><path class="st2" d="M471.1,130.8c14.2-14.2,28.4-28.4,42.6-42.6c0.8-0.8-0.4-2-1.2-1.2c-14.2,14.2-28.4,28.4-42.6,42.6 C469.1,130.4,470.3,131.6,471.1,130.8L471.1,130.8z"/><path class="st2" d="M514,87.6c0-28.4,0-56.9,0-85.3c0-1.1-1.8-1.1-1.8,0c0,28.4,0,56.9,0,85.3C512.3,88.7,514,88.7,514,87.6 L514,87.6z"/><path class="st2" d="M470.5,172.9c0.3-14.2,0.6-28.4,0.9-42.6c0-1.1-1.7-1.1-1.8,0c-0.3,14.2-0.6,28.4-0.9,42.6 C468.7,174,470.5,174,470.5,172.9L470.5,172.9z"/><path class="st3" d="M385.8,172.2c-24-19.2-48-38.4-72.1-57.7C275.5,84,237.2,53.4,198.9,22.7c-8.8-7-17.5-14-26.3-21 c-0.9-0.7-2.1,0.5-1.2,1.2c24,19.2,48,38.4,72.1,57.7c38.3,30.6,76.6,61.2,114.8,91.9c8.8,7,17.5,14,26.3,21 C385.5,174.2,386.7,172.9,385.8,172.2L385.8,172.2z"/><path class="st3" d="M758.3,173.5c17.6,14.6,35.1,29.2,52.7,43.8c0.9,0.7,2.1-0.5,1.2-1.2c-17.6-14.6-35.1-29.2-52.7-43.8 C758.7,171.5,757.4,172.8,758.3,173.5L758.3,173.5z"/><path class="st3" d="M811.6,217.6c27.8,0,55.7,0,83.5,0c1.1,0,1.1-1.8,0-1.8c-27.8,0-55.7,0-83.5,0 C810.5,215.8,810.5,217.6,811.6,217.6L811.6,217.6z"/><path class="st3" d="M895.7,217.3c15.8-13.8,31.6-27.6,47.4-41.5c0.8-0.7-0.4-2-1.2-1.2c-15.8,13.8-31.6,27.6-47.4,41.5 C893.6,216.8,894.9,218,895.7,217.3L895.7,217.3z"/><path class="st3" d="M811,217.3c17.3,17.3,34.6,34.6,52,52c27.6,27.6,55.3,55.3,82.9,82.9c6.4,6.4,12.7,12.7,19.1,19.1 c0.8,0.8,2-0.4,1.2-1.2c-17.3-17.3-34.6-34.6-52-52c-27.6-27.6-55.3-55.3-82.9-82.9c-6.4-6.4-12.7-12.7-19.1-19.1 C811.4,215.3,810.2,216.5,811,217.3L811,217.3z"/><path class="st3" d="M968.9,367.9c16.6-19.7,33.1-39.3,49.7-59c2.4-2.8,4.8-5.7,7.2-8.5c0.7-0.9-0.5-2.1-1.2-1.2 c-16.6,19.7-33.1,39.3-49.7,59c-2.4,2.8-4.8,5.7-7.2,8.5C966.9,367.5,968.1,368.7,968.9,367.9L968.9,367.9z"/><path class="st3" d="M972.3,374.3c25.8,0,51.5,0,77.3,0c40.9,0,81.8,0,122.6,0c9.4,0,18.9,0,28.3,0c1.1,0,1.1-1.8,0-1.8 c-25.8,0-51.5,0-77.3,0c-40.9,0-81.8,0-122.6,0c-9.4,0-18.9,0-28.3,0C971.2,372.6,971.2,374.3,972.3,374.3L972.3,374.3z"/><path class="st3" d="M965.7,372.1c18.8,18.8,37.6,37.6,56.5,56.5c0.8,0.8,2-0.4,1.2-1.2c-18.8-18.8-37.6-37.6-56.5-56.5 C966.1,370,964.9,371.3,965.7,372.1L965.7,372.1z"/><path class="st3" d="M908.9,317.5c-12.8,16.3-25.6,32.7-38.4,49c-20.4,26.1-40.8,52.1-61.2,78.2c-4.7,6-9.4,12-14.1,18 c-0.7,0.9,0.5,2.1,1.2,1.2c12.8-16.3,25.6-32.7,38.4-49c20.4-26.1,40.8-52.1,61.2-78.2c4.7-6,9.4-12,14.1-18 C910.8,317.9,909.6,316.7,908.9,317.5L908.9,317.5z"/><path class="st3" d="M794.9,463.4c0,38.3,0,76.6,0,114.9c0,60.7,0,121.3,0,182c0,14,0,28,0,42c0,1.1,1.8,1.1,1.8,0 c0-38.3,0-76.6,0-114.9c0-60.7,0-121.3,0-182c0-14,0-28,0-42C796.7,462.3,794.9,462.3,794.9,463.4L794.9,463.4z"/><path class="st3" d="M1025.2,299.9c19.7,0,39.4,0,59.1,0c31.4,0,62.8,0,94.2,0c7.3,0,14.5,0,21.8,0c1.1,0,1.1-1.8,0-1.8 c-19.7,0-39.4,0-59.1,0c-31.4,0-62.8,0-94.2,0c-7.3,0-14.5,0-21.8,0C1024.1,298.1,1024.1,299.9,1025.2,299.9L1025.2,299.9z"/><path class="st3" d="M1023,429.4c19.9,0,39.9,0,59.8,0c31.8,0,63.7,0,95.5,0c7.4,0,14.8,0,22.2,0c1.1,0,1.1-1.8,0-1.8 c-19.9,0-39.9,0-59.8,0c-31.8,0-63.7,0-95.5,0c-7.4,0-14.8,0-22.2,0C1021.9,427.6,1021.9,429.4,1023,429.4L1023,429.4z"/><circle class="st5" cx="150.7" cy="236.8" r="21.3"/><path class="st2" d="M150.3,341.3c-22.4,22.4-44.7,44.7-67.1,67.1c-3.2,3.2-6.4,6.4-9.6,9.6c-0.5,0.5,0.3,1.2,0.7,0.7 c22.4-22.4,44.7-44.7,67.1-67.1c3.2-3.2,6.4-6.4,9.6-9.6C151.5,341.5,150.8,340.8,150.3,341.3L150.3,341.3z"/><path class="st2" d="M938.7,2.3c0,41.5,0,83.1,0,124.6c0,5.9,0,11.7,0,17.6c0,1.1,1.8,1.1,1.8,0c0-41.5,0-83.1,0-124.6 c0-5.9,0-11.7,0-17.6C940.4,1.2,938.7,1.2,938.7,2.3L938.7,2.3z"/><path class="st2" d="M981.3,2.3c0,41.5,0,83.1,0,124.6c0,5.9,0,11.7,0,17.6c0,1.1,1.8,1.1,1.8,0c0-41.5,0-83.1,0-124.6 c0-5.9,0-11.7,0-17.6C983,1.2,981.3,1.2,981.3,2.3L981.3,2.3z"/><path class="st2" d="M896,2.3c0,41.5,0,83.1,0,124.6c0,5.9,0,11.7,0,17.6c0,1.1,1.8,1.1,1.8,0c0-41.5,0-83.1,0-124.6 c0-5.9,0-11.7,0-17.6C897.8,1.2,896,1.2,896,2.3L896,2.3z"/><path class="st2" d="M853.4,2.3c0,41.5,0,83.1,0,124.6c0,5.9,0,11.7,0,17.6c0,1.1,1.8,1.1,1.8,0c0-41.5,0-83.1,0-124.6 c0-5.9,0-11.7,0-17.6C855.1,1.2,853.4,1.2,853.4,2.3L853.4,2.3z"/><path class="st4" d="M433.5,637c12.5-12.3,25-24.6,37.4-36.9c0.8-0.8-0.4-2-1.2-1.2c-12.5,12.3-25,24.6-37.4,36.9 C431.4,636.6,432.7,637.8,433.5,637L433.5,637z"/><g id="K_2_"><path class="st2" d="M163.6,518.3l-53.7,54.4l53.5,53.5c0,0,54,7.3,54-54C217.5,510.9,163.6,518.3,163.6,518.3z M58.3,625.7h27.2 v-107H58.3V625.7z"/><path class="st3" d="M163,517.7c-17.9,18.1-35.8,36.3-53.7,54.4c-0.3,0.3-0.3,0.9,0,1.2c12.7,12.7,25.4,25.4,38,38 c3.4,3.4,6.8,6.8,10.2,10.3c1.5,1.5,3.2,3.9,5,5c2.3,1.4,6.3,0.8,8.9,0.6c17.6-0.9,33.9-9.6,41.4-26.1c6-13.1,6.7-28.9,4.4-42.9 c-1.8-11.3-6.5-22.3-15.3-29.9c-10.2-8.8-25.3-12.7-38.7-10.9c-1.1,0.2-0.6,1.8,0.5,1.7c17-2.3,36.9,5.5,45.8,21.4 c9,16.1,9.4,39.1,3.2,56.2c-4.6,12.8-14.5,22.4-27.5,26.4c-6.3,2-14.5,3.5-21.2,2.3c-1.1-0.2-0.1,0.1-0.1,0.1 c-0.9-0.6-1.7-1.7-2.4-2.4c-3.6-3.6-7.1-7.1-10.7-10.7c-10-10-20-20-30-30c-2.8-2.8-5.9-7.2-9.3-9.3c-1.7-1.1,0.3-0.9-0.9,0.2 c0.7-0.7,1.4-1.5,2.1-2.2c17.2-17.4,34.3-34.8,51.5-52.2C165,518.1,163.8,516.9,163,517.7z"/><path class="st3" d="M58.3,626.5c9.1,0,18.1,0,27.2,0c0.5,0,0.9-0.4,0.9-0.9c0-31.2,0-62.4,0-93.7c0-4.4,0-8.9,0-13.3 c0-0.5-0.4-0.9-0.9-0.9c-9.1,0-18.1,0-27.2,0c-0.5,0-0.9,0.4-0.9,0.9c0,31.2,0,62.4,0,93.7c0,4.4,0,8.9,0,13.3 c0,1.1,1.8,1.1,1.8,0c0-17.2,0-34.3,0-51.5c0-12.1,0-24.2,0-36.3c0-6.2,0.7-12.8,0-19c-0.1-0.6-0.6,0.7-0.8,0.7 c0.5,0,1.1-0.1,1.5,0c2.4,0.4,5.2,0,7.6,0c3.1,0,6.2,0,9.3,0c2.1,0,5.6,0.7,7.6,0c1.5-0.5,0.2-0.4,0.2-0.6c-0.1,0.8,0,1.6,0,2.3 c0,3.5,0,6.9,0,10.4c0,23.7,0,47.4,0,71.2c0,7.4-0.8,15.3,0,22.7c0.1,0.7,1.3-0.6,0.7-0.7c-0.8-0.1-1.7,0-2.5,0 c-3.1,0-6.3,0-9.4,0c-5,0-10.1,0-15.1,0C57.2,624.8,57.2,626.5,58.3,626.5z"/></g><g id="Y_2_"><path class="st2" d="M283.4,521.5H237l11.6,20.1l11.6,20.1l11.6-20.1L283.4,521.5z M269.3,567.9V626h15.7v-58.1H269.3z M233.5,626h15.7v-58.1h-15.7V626z"/><path class="st3" d="M283.4,520.6c-15.5,0-30.9,0-46.4,0c-0.7,0-1.1,0.7-0.8,1.3c7.7,13.4,15.5,26.8,23.2,40.1 c0.3,0.6,1.2,0.6,1.5,0c7.7-13.4,15.4-26.8,23.2-40.1c0.6-1-0.9-1.9-1.5-0.9c-7.7,13.4-15.5,26.8-23.2,40.1c0.5,0,1,0,1.5,0 c-7.7-13.4-15.5-26.8-23.2-40.1c-0.3,0.4-0.5,0.9-0.8,1.3c15.5,0,30.9,0,46.4,0C284.5,522.4,284.5,520.6,283.4,520.6z"/><path class="st3" d="M268.4,567.9c0,19.4,0,38.8,0,58.1c0,0.5,0.4,0.9,0.9,0.9c5.2,0,10.4,0,15.7,0c0.5,0,0.9-0.4,0.9-0.9 c0-19.4,0-38.8,0-58.1c0-0.5-0.4-0.9-0.9-0.9c-5.2,0-10.4,0-15.7,0c-1.1,0-1.1,1.8,0,1.8c5.1,0,10.3,0.3,15.3,0 c0.5,0-0.5-1.4-0.6-0.5c-0.1,0.4,0.1,0.9,0,1.4c-0.3,1.9,0,4,0,5.9c0,13,0,26.1,0,39.1c0,3.6,0.5,7.6,0,11.2 c0-0.2,1.3-0.4,0.2-0.7c-0.9-0.3-2.4,0-3.4,0c-3.1,0-6.8-0.5-9.8,0c-2,0.4-1.1-0.7-0.9,0.8c0-0.2-0.1-0.8,0-1 c0.5-1.3,0-3.9,0-5.3c0-5.9,0-11.9,0-17.8c0-11.3,0-22.7,0-34C270.2,566.8,268.4,566.8,268.4,567.9z"/><path class="st3" d="M233.5,626.9c5.2,0,10.4,0,15.7,0c0.5,0,0.9-0.4,0.9-0.9c0-19.4,0-38.8,0-58.1c0-0.5-0.4-0.9-0.9-0.9 c-5.2,0-10.4,0-15.7,0c-0.5,0-0.9,0.4-0.9,0.9c0,19.4,0,38.8,0,58.1c0,1.1,1.8,1.1,1.8,0c0-9.4,0-18.7,0-28.1 c0-6.7,0-13.5,0-20.2c0-3-0.6-6.8,0-9.8c-0.3,1.7-1.2,0.3,0.6,0.8c1.3,0.4,3.1,0,4.4,0c2.5,0,6.7,0.8,9.1,0 c1.1-0.4-0.2-0.4-0.2-0.7c0,0.3,0.1,0.9,0,1.2c-0.4,1.7,0,3.9,0,5.6c0,13,0,26,0,39c0,3.8,0.7,8.4,0,12.1c0.2-1.2,1-0.8-1.2-0.8 c-1.7,0-3.5,0-5.2,0c-2.8,0-5.5,0-8.3,0C232.4,625.2,232.4,626.9,233.5,626.9z"/></g><g id="E_2_"><path class="st2" d="M390.1 518.7L390.1 546.3 365.4 546.3 365.4 560.4 390.1 560.4 390.1 585.4 365.4 585.4 365.4 599.6 390.1 599.6 390.1 626 407.2 626 407.2 518.7z"/><path class="st3" d="M389.2,518.7c0,9-0.4,18.2,0,27.2c0,0.9,1.3-0.4,0.5-0.5c-0.7-0.1-1.6,0-2.3,0c-2.7,0-5.5,0-8.2,0 c-4.6,0-9.2,0-13.8,0c-0.5,0-0.9,0.4-0.9,0.9c0,4.7,0,9.4,0,14.2c0,0.5,0.4,0.9,0.9,0.9c7,0,14,0,20.9,0c1.1,0,2.2,0.1,3.3,0 c-0.8,0,0-1.4-0.5,0.3c-1,3.1,0,8.1,0,11.3c0,3.4-0.7,7.7,0,11.1c0.4,2-0.5,0.5,0.7,0.6c-1.1-0.1-2.3,0-3.5,0c-7,0-14,0-20.9,0 c-0.5,0-0.9,0.4-0.9,0.9c0,4.7,0,9.4,0,14.2c0,0.5,0.4,0.9,0.9,0.9c4.3,0,8.5,0,12.8,0c2.8,0,5.7,0,8.5,0c0.7,0,1.8,0.2,2.5,0 c1.3-0.5-0.1,0.2-0.1-0.7c-0.3,8.7,0,17.5,0,26.3c0,0.5,0.4,0.9,0.9,0.9c5.7,0,11.4,0,17.1,0c0.5,0,0.9-0.4,0.9-0.9 c0-31.3,0-62.5,0-93.8c0-4.5,0-9,0-13.5c0-0.5-0.4-0.9-0.9-0.9c-5.7,0-11.4,0-17.1,0c-1.1,0-1.1,1.8,0,1.8 c5.6,0,11.5-0.6,17.1,0c-1.4-0.1-0.5-1.3-0.8,0.8c-0.2,1.5,0,3.2,0,4.7c0,13.1,0,26.3,0,39.4c0,15.1,0,30.1,0,45.2 c0,4.5,0,9,0,13.5c0,0.9,0.1,1.8,0,2.7c0,0.1,1.2-0.3,0.2-0.7c-1.3-0.5-3.7,0-5,0c-3.2,0-7.8-0.9-10.9,0 c-0.3,0.1-0.3,1.3,0.2-0.3c0.4-1.2,0-3.3,0-4.6c0-6.9,0-13.8,0-20.7c0-0.5-0.4-0.9-0.9-0.9c-5.7,0-11.4,0-17.2,0 c-2.4,0-4.8,0.1-7.2,0c1.2,0.1,0.3,1.2,0.7-1c0.3-1.7,0-3.5,0-5.2c0-1.7,0.3-3.6,0-5.2c-0.3-2,0.7-1.2-0.7-1 c2.1-0.4,4.7,0,6.8,0c5.9,0,11.7,0,17.6,0c0.5,0,0.9-0.4,0.9-0.9c0-8.3,0-16.6,0-25c0-0.5-0.4-0.9-0.9-0.9c-5.7,0-11.4,0-17.2,0 c-2.4,0-4.8,0.1-7.2,0c1.2,0.1,0.3,1.2,0.7-1c0.3-1.7,0-3.5,0-5.2c0-1.7,0.3-3.6,0-5.2c-0.3-2,0.7-1.2-0.7-1 c2.1-0.4,4.7,0,6.8,0c5.9,0,11.7,0,17.6,0c0.5,0,0.9-0.4,0.9-0.9c0-9.2,0-18.4,0-27.6C390.9,517.6,389.2,517.6,389.2,518.7z"/></g><g id="L_2_"><path class="st2" d="M325.2 607.4L325.2 520.2 308.8 520.2 308.8 624.6 352.8 624.6 352.8 607.4z"/><path class="st3" d="M326.1,607.4c0-25.4,0-50.9,0-76.3c0-3.6,0-7.3,0-10.9c0-0.5-0.4-0.9-0.9-0.9c-5.5,0-10.9,0-16.4,0 c-0.5,0-0.9,0.4-0.9,0.9c0,30.4,0,60.7,0,91.1c0,4.4,0,8.8,0,13.2c0,0.5,0.4,0.9,0.9,0.9c14.7,0,29.3,0,44,0 c0.5,0,0.9-0.4,0.9-0.9c0-5.7,0-11.4,0-17.1c0-0.5-0.4-0.9-0.9-0.9c-9.2,0-18.4,0-27.6,0c-1.1,0-1.1,1.8,0,1.8 c4.9,0,9.8,0,14.8,0c3,0,5.9,0,8.9,0c0.8,0,2.1,0.3,2.9,0c0.2-0.1,0.7,0,0.9,0c0.2,0-0.6-1.4-0.7-0.4c-0.5,5.1-0.6,11.3,0,16.4 c0,0.2,1.4-0.4,0.4-0.6c-0.6-0.1-1.2,0-1.8,0c-2.6,0-5.2,0-7.9,0c-11.2,0-22.6-0.7-33.8,0c1.8-0.1,0.2,1.5,0.8-0.1 c0.3-1,0-2.6,0-3.7c0-4.6,0-9.2,0-13.8c0-25.5,0-51.1,0-76.6c0-2.5,0.7-6.2,0-8.6c0-0.2,0-0.5,0-0.7c-0.3,1.6-1.3,0.3,0.3,0.8 c2.6,0.8,6.7,0,9.5,0c1.3,0,2.8,0.2,4.1,0c2.1-0.4,1.1,0.7,0.8-0.9c0.1,0.7,0,1.5,0,2.2c0,4.1,0,8.2,0,12.3 c0,24.2,0,48.4,0,72.6C324.3,608.5,326.1,608.5,326.1,607.4z"/></g></g></svg>