<?xml version="1.0" encoding="utf-8"?>
<!-- Generator: Adobe Illustrator 20.0.0, SVG Export Plug-In . SVG Version: 6.00 Build 0)  -->
<svg version="1.1" id="Layer_1" xmlns="http://www.w3.org/2000/svg" xmlns:xlink="http://www.w3.org/1999/xlink" x="0px" y="0px"
	 viewBox="0 0 1202 803.651" style="enable-background:new 0 0 1202 803.651;" xml:space="preserve">
<style type="text/css">
	.st0{fill:#414042;stroke:#414042;stroke-miterlimit:10;}
	.st1{fill:#AFDFE4;}
	.st2{fill:#00B0D8;}
	.st3{fill:#ACDFEA;}
	.st4{fill:none;stroke:#00B0D8;stroke-width:2;}
	.st5{fill:none;stroke:#662D91;stroke-width:2;}
	.st6{fill:none;stroke:#00B0D8;stroke-width:4;}
	.st7{fill:none;stroke:#662D91;stroke-width:4;}
	.st8{fill:none;stroke:#AFDFE4;stroke-width:0.25;}
</style>
<rect x="0.5" y="0.5" class="st0" width="1201" height="802.651"/>
<g>
	<g>
		<path class="st1" d="M259.136,425.148c0,27.051,0,54.101,0,81.152c0,3.878,0,7.755,0,11.633c0,0.676,1.05,0.677,1.05,0
			c0-27.051,0-54.101,0-81.152c0-3.878,0-7.755,0-11.633C260.186,424.472,259.136,424.471,259.136,425.148L259.136,425.148z"/>
	</g>
</g>
<g>
	<g>
		<path class="st1" d="M315.2,427.521c0,25.656,0,51.311,0,76.967c0,3.692,0,7.383,0,11.075c0,0.676,1.05,0.677,1.05,0
			c0-25.656,0-51.311,0-76.967c0-3.692,0-7.383,0-11.075C316.25,426.845,315.2,426.844,315.2,427.521L315.2,427.521z"/>
	</g>
</g>
<g>
	<g>
		<path class="st1" d="M394.161,429.494c0,24.934,0,49.868,0,74.802c0,3.558,0,7.117,0,10.675c0,0.676,1.05,0.677,1.05,0
			c0-24.934,0-49.868,0-74.802c0-3.558,0-7.117,0-10.675C395.211,428.818,394.161,428.817,394.161,429.494L394.161,429.494z"/>
	</g>
</g>
<g>
	<g>
		<path class="st1" d="M173.657,463.25c0,16.91,0,33.82,0,50.73c0,0.676,1.05,0.677,1.05,0c0-16.91,0-33.82,0-50.73
			C174.707,462.574,173.657,462.573,173.657,463.25L173.657,463.25z"/>
	</g>
</g>
<g>
	<g>
		<path class="st1" d="M73.243,518.127c0-28.695,0-57.39,0-86.085c0-4.174,0-8.347,0-12.521c0-0.676-1.05-0.677-1.05,0
			c0,28.695,0,57.39,0,86.085c0,4.174,0,8.347,0,12.521C72.193,518.802,73.243,518.803,73.243,518.127L73.243,518.127z"/>
	</g>
</g>
<g>
	<g>
		<path class="st1" d="M235.6,401.088c-17.97,17.97-35.939,35.94-53.909,53.91c-2.627,2.627-5.254,5.254-7.88,7.88
			c-0.478,0.478,0.264,1.221,0.742,0.742c17.97-17.97,35.939-35.94,53.909-53.91c2.627-2.627,5.254-5.254,7.88-7.88
			C236.821,401.352,236.079,400.61,235.6,401.088L235.6,401.088z"/>
	</g>
</g>
<g>
	<g>
		<path class="st1" d="M512.512,513.361c-14.214,14.214-28.427,28.427-42.641,42.641c-0.797,0.797,0.44,2.035,1.237,1.237
			c14.214-14.214,28.427-28.427,42.641-42.641C514.547,513.801,513.309,512.564,512.512,513.361L512.512,513.361z"/>
	</g>
</g>
<g>
	<g>
		<path class="st1" d="M555.15,513.361c-14.213,14.214-28.425,28.427-42.638,42.641c-0.797,0.797,0.44,2.035,1.237,1.237
			c14.213-14.214,28.425-28.427,42.638-42.641C557.185,513.801,555.948,512.564,555.15,513.361L555.15,513.361z"/>
	</g>
</g>
<g>
	<g>
		<path class="st1" d="M597.79,513.361c-14.214,14.214-28.427,28.427-42.641,42.641c-0.797,0.797,0.44,2.035,1.237,1.237
			c14.214-14.214,28.427-28.427,42.641-42.641C599.825,513.801,598.588,512.564,597.79,513.361L597.79,513.361z"/>
	</g>
</g>
<g>
	<g>
		<path class="st1" d="M640.429,513.361c-14.213,14.214-28.426,28.427-42.639,42.641c-0.797,0.797,0.44,2.035,1.237,1.237
			c14.213-14.214,28.426-28.427,42.639-42.641C642.464,513.801,641.227,512.564,640.429,513.361L640.429,513.361z"/>
	</g>
</g>
<g>
	<g>
		<path class="st1" d="M853.492,144.879c24.915,33.22,49.83,66.441,74.746,99.661c3.511,4.682,7.022,9.363,10.534,14.045
			c0.668,0.89,2.188,0.019,1.511-0.883c-24.915-33.22-49.83-66.44-74.746-99.661c-3.511-4.682-7.022-9.363-10.534-14.045
			C854.335,143.105,852.815,143.976,853.492,144.879L853.492,144.879z"/>
	</g>
</g>
<g>
	<g>
		<path class="st1" d="M938.651,258.143c0,49.881,0,99.763,0,149.644c0,6.971,0,13.943,0,20.914c0,1.126,1.75,1.128,1.75,0
			c0-49.881,0-99.763,0-149.644c0-6.971,0-13.943,0-20.914C940.401,257.017,938.651,257.015,938.651,258.143L938.651,258.143z"/>
	</g>
</g>
<g>
	<g>
		<path class="st1" d="M938.908,428.082c-24.875,24.875-49.75,49.75-74.625,74.625c-3.551,3.551-7.103,7.103-10.654,10.654
			c-0.797,0.797,0.44,2.035,1.237,1.237c24.875-24.875,49.75-49.75,74.625-74.625c3.551-3.551,7.103-7.103,10.654-10.654
			C940.942,428.522,939.705,427.284,938.908,428.082L938.908,428.082z"/>
	</g>
</g>
<g>
	<g>
		<path class="st2" d="M854.247,513.105c-38.495,0-76.991,0-115.487,0c-61.267,0-122.535,0-183.802,0c-13.943,0-27.885,0-41.828,0
			c-1.126,0-1.128,1.75,0,1.75c38.496,0,76.991,0,115.487,0c61.268,0,122.535,0,183.803,0c13.943,0,27.885,0,41.828,0
			C855.373,514.855,855.375,513.105,854.247,513.105L854.247,513.105z"/>
	</g>
</g>
<g>
	<g>
		<path class="st1" d="M469.614,556.621c0,27.681,0,55.362,0,83.044c0,44.107,0,88.215,0,132.322c0,10.106,0,20.212,0,30.318
			c0,1.126,1.75,1.128,1.75,0c0-27.681,0-55.362,0-83.044c0-44.107,0-88.215,0-132.322c0-10.106,0-20.212,0-30.318
			C471.364,555.495,469.614,555.493,469.614,556.621L469.614,556.621z"/>
	</g>
</g>
<g>
	<g>
		<path class="st1" d="M896.132,144.879c24.915,33.22,49.83,66.441,74.746,99.661c3.511,4.682,7.022,9.363,10.534,14.045
			c0.668,0.89,2.188,0.019,1.511-0.883c-24.915-33.22-49.83-66.44-74.746-99.661c-3.511-4.682-7.022-9.363-10.534-14.045
			C896.976,143.105,895.456,143.976,896.132,144.879L896.132,144.879z"/>
	</g>
</g>
<g>
	<g>
		<path class="st1" d="M981.292,258.143c0,49.881,0,99.763,0,149.644c0,6.971,0,13.943,0,20.914c0,1.126,1.75,1.128,1.75,0
			c0-49.881,0-99.763,0-149.644c0-6.971,0-13.943,0-20.914C983.042,257.017,981.292,257.015,981.292,258.143L981.292,258.143z"/>
	</g>
</g>
<g>
	<g>
		<path class="st1" d="M981.548,428.082c-24.875,24.875-49.75,49.75-74.625,74.625c-3.551,3.551-7.103,7.103-10.654,10.654
			c-0.797,0.797,0.44,2.035,1.237,1.237c24.875-24.875,49.75-49.75,74.625-74.625c3.551-3.551,7.103-7.103,10.654-10.654
			C983.583,428.522,982.346,427.284,981.548,428.082L981.548,428.082z"/>
	</g>
</g>
<g>
	<g>
		<path class="st2" d="M896.888,513.105c-38.496,0-76.992,0-115.487,0c-61.268,0-122.536,0-183.804,0c-13.943,0-27.885,0-41.828,0
			c-1.126,0-1.128,1.75,0,1.75c38.496,0,76.992,0,115.487,0c61.268,0,122.536,0,183.804,0c13.943,0,27.885,0,41.828,0
			C898.014,514.855,898.016,513.105,896.888,513.105L896.888,513.105z"/>
	</g>
</g>
<g>
	<g>
		<path class="st1" d="M512.255,556.621c0,27.681,0,55.362,0,83.044c0,44.107,0,88.215,0,132.322c0,10.106,0,20.212,0,30.318
			c0,1.126,1.75,1.128,1.75,0c0-27.681,0-55.362,0-83.044c0-44.107,0-88.215,0-132.322c0-10.106,0-20.212,0-30.318
			C514.005,555.495,512.255,555.493,512.255,556.621L512.255,556.621z"/>
	</g>
</g>
<g>
	<g>
		<path class="st1" d="M938.771,144.879c24.915,33.22,49.83,66.441,74.745,99.661c3.511,4.682,7.022,9.363,10.534,14.045
			c0.668,0.89,2.188,0.019,1.511-0.883c-24.915-33.22-49.83-66.44-74.745-99.661c-3.511-4.682-7.022-9.363-10.534-14.045
			C939.614,143.105,938.094,143.976,938.771,144.879L938.771,144.879z"/>
	</g>
</g>
<g>
	<g>
		<path class="st1" d="M1023.93,258.143c0,49.881,0,99.763,0,149.644c0,6.971,0,13.943,0,20.914c0,1.126,1.75,1.128,1.75,0
			c0-49.881,0-99.763,0-149.644c0-6.971,0-13.943,0-20.914C1025.68,257.017,1023.93,257.015,1023.93,258.143L1023.93,258.143z"/>
	</g>
</g>
<g>
	<g>
		<path class="st1" d="M1024.186,428.082c-24.875,24.875-49.75,49.75-74.625,74.625c-3.551,3.551-7.103,7.103-10.654,10.654
			c-0.797,0.797,0.44,2.035,1.237,1.237c24.875-24.875,49.75-49.75,74.625-74.625c3.551-3.551,7.102-7.103,10.654-10.654
			C1026.221,428.522,1024.984,427.284,1024.186,428.082L1024.186,428.082z"/>
	</g>
</g>
<g>
	<g>
		<path class="st2" d="M939.526,513.105c-38.496,0-76.991,0-115.487,0c-61.268,0-122.535,0-183.803,0c-13.943,0-27.885,0-41.828,0
			c-1.126,0-1.128,1.75,0,1.75c38.496,0,76.991,0,115.487,0c61.268,0,122.535,0,183.803,0c13.943,0,27.885,0,41.828,0
			C940.652,514.855,940.654,513.105,939.526,513.105L939.526,513.105z"/>
	</g>
</g>
<g>
	<g>
		<path class="st1" d="M554.894,556.621c0,27.681,0,55.362,0,83.044c0,44.107,0,88.215,0,132.322c0,10.106,0,20.212,0,30.318
			c0,1.126,1.75,1.128,1.75,0c0-27.681,0-55.362,0-83.044c0-44.107,0-88.215,0-132.322c0-10.106,0-20.212,0-30.318
			C556.644,555.495,554.894,555.493,554.894,556.621L554.894,556.621z"/>
	</g>
</g>
<g>
	<g>
		<path class="st1" d="M981.411,144.879c24.915,33.22,49.83,66.441,74.745,99.661c3.511,4.682,7.022,9.363,10.534,14.045
			c0.668,0.89,2.188,0.019,1.511-0.883c-24.915-33.22-49.83-66.44-74.745-99.661c-3.511-4.682-7.022-9.363-10.534-14.045
			C982.255,143.105,980.735,143.976,981.411,144.879L981.411,144.879z"/>
	</g>
</g>
<g>
	<g>
		<path class="st1" d="M1066.57,258.143c0,49.881,0,99.763,0,149.644c0,6.971,0,13.943,0,20.914c0,1.126,1.75,1.128,1.75,0
			c0-49.881,0-99.763,0-149.644c0-6.971,0-13.943,0-20.914C1068.32,257.017,1066.57,257.015,1066.57,258.143L1066.57,258.143z"/>
	</g>
</g>
<g>
	<g>
		<path class="st1" d="M1066.827,428.082c-24.875,24.875-49.75,49.75-74.624,74.625c-3.551,3.551-7.103,7.103-10.654,10.654
			c-0.797,0.797,0.44,2.035,1.237,1.237c24.875-24.875,49.75-49.75,74.625-74.625c3.551-3.551,7.103-7.103,10.654-10.654
			C1068.861,428.522,1067.624,427.284,1066.827,428.082L1066.827,428.082z"/>
	</g>
</g>
<g>
	<g>
		<path class="st2" d="M982.167,513.105c-38.496,0-76.992,0-115.487,0c-61.268,0-122.536,0-183.804,0c-13.943,0-27.885,0-41.828,0
			c-1.126,0-1.128,1.75,0,1.75c38.496,0,76.992,0,115.487,0c61.268,0,122.536,0,183.804,0c13.943,0,27.885,0,41.828,0
			C983.293,514.855,983.295,513.105,982.167,513.105L982.167,513.105z"/>
	</g>
</g>
<g>
	<g>
		<path class="st1" d="M597.534,556.621c0,27.681,0,55.362,0,83.044c0,44.107,0,88.215,0,132.322c0,10.106,0,20.212,0,30.318
			c0,1.126,1.75,1.128,1.75,0c0-27.681,0-55.362,0-83.044c0-44.107,0-88.215,0-132.322c0-10.106,0-20.212,0-30.318
			C599.284,555.495,597.534,555.493,597.534,556.621L597.534,556.621z"/>
	</g>
</g>
<g>
	<g>
		<path class="st1" d="M235.446,258.143c0,41.922,0,83.843,0,125.765c0,5.851,0,11.701,0,17.552c0,0.676,1.05,0.677,1.05,0
			c0-41.922,0-83.843,0-125.765c0-5.851,0-11.701,0-17.552C236.496,257.467,235.446,257.466,235.446,258.143L235.446,258.143z"/>
	</g>
</g>
<g>
	<g>
		<path class="st1" d="M235.6,401.831c7.896,7.896,15.793,15.792,23.689,23.689c0.478,0.478,1.221-0.264,0.742-0.742
			c-7.896-7.896-15.793-15.792-23.689-23.689C235.864,400.61,235.121,401.352,235.6,401.831L235.6,401.831z"/>
	</g>
</g>
<g>
	<g>
		<path class="st1" d="M316.096,427.15c-23.274-23.274-46.548-46.548-69.822-69.823c-3.31-3.31-6.621-6.621-9.931-9.931
			c-0.478-0.478-1.221,0.264-0.742,0.742c23.274,23.274,46.548,46.548,69.822,69.823c3.31,3.31,6.621,6.621,9.931,9.931
			C315.832,428.371,316.574,427.628,316.096,427.15L316.096,427.15z"/>
	</g>
</g>
<g>
	<g>
		<path class="st1" d="M395.058,429.122c-17.88-17.88-35.76-35.76-53.639-53.64c-28.493-28.493-56.986-56.986-85.478-85.479
			c-6.533-6.533-13.065-13.065-19.598-19.598c-0.478-0.478-1.221,0.264-0.742,0.742c17.88,17.88,35.76,35.76,53.639,53.64
			c28.493,28.493,56.986,56.986,85.478,85.479c6.533,6.533,13.065,13.065,19.598,19.598
			C394.794,430.343,395.536,429.601,395.058,429.122L395.058,429.122z"/>
	</g>
</g>
<g>
	<g>
		<path class="st1" d="M150.167,258.143c0,27.834,0,55.668,0,83.502c0,0.676,1.05,0.677,1.05,0c0-27.834,0-55.668,0-83.502
			C151.217,257.467,150.167,257.466,150.167,258.143L150.167,258.143z"/>
	</g>
</g>
<g>
	<g>
		<path class="st2" d="M598.409,173.738c47.096,0,94.192,0,141.288,0c6.598,0,13.196,0,19.794,0c1.126,0,1.128-1.75,0-1.75
			c-47.096,0-94.192,0-141.288,0c-6.598,0-13.196,0-19.794,0C597.283,171.988,597.281,173.738,598.409,173.738L598.409,173.738z"/>
	</g>
</g>
<g>
	<g>
		<path class="st2" d="M944.264,175.316c47.097,0,94.193,0,141.29,0c6.598,0,13.197,0,19.795,0c1.126,0,1.128-1.75,0-1.75
			c-47.097,0-94.193,0-141.29,0c-6.598,0-13.197,0-19.795,0C943.138,173.566,943.136,175.316,944.264,175.316L944.264,175.316z"/>
	</g>
</g>
<g>
	<g>
		<path class="st2" d="M513.13,171.988c-37.411,0-74.823,0-112.234,0c-5.229,0-10.457,0-15.686,0c-1.126,0-1.128,1.75,0,1.75
			c37.411,0,74.823,0,112.234,0c5.228,0,10.457,0,15.685,0C514.256,173.738,514.258,171.988,513.13,171.988L513.13,171.988z"/>
	</g>
</g>
<g>
	<g>
		<path class="st3" d="M0.834,89.387c14.355,14.222,28.71,28.445,43.066,42.667c23.02,22.807,46.041,45.615,69.061,68.422
			c5.264,5.215,10.528,10.431,15.792,15.646c0.801,0.794,2.039-0.443,1.237-1.237c-14.355-14.222-28.71-28.445-43.066-42.667
			c-23.02-22.807-46.041-45.615-69.061-68.422C12.6,98.58,7.336,93.365,2.072,88.149C1.271,87.356,0.033,88.593,0.834,89.387
			L0.834,89.387z"/>
	</g>
</g>
<g>
	<g>
		<path class="st3" d="M0.834,2.923c24.07,24.07,48.141,48.141,72.211,72.211c38.297,38.297,76.594,76.594,114.891,114.891
			c8.699,8.699,17.398,17.398,26.097,26.097c0.797,0.797,2.035-0.44,1.237-1.237c-24.07-24.07-48.141-48.141-72.211-72.211
			C104.763,104.376,66.466,66.08,28.169,27.783C19.47,19.084,10.771,10.385,2.072,1.685C1.274,0.888,0.037,2.125,0.834,2.923
			L0.834,2.923z"/>
	</g>
</g>
<g>
	<g>
		<path class="st3" d="M85.42,3.617c12.798,11.376,25.596,22.752,38.394,34.128c30.469,27.083,60.938,54.167,91.407,81.25
			c36.958,32.851,73.915,65.702,110.873,98.553c31.951,28.401,63.901,56.801,95.852,85.202c10.503,9.336,21.006,18.672,31.51,28.009
			c4.945,4.396,9.733,9.47,15.069,13.395c0.231,0.17,0.438,0.389,0.653,0.58c1.78,1.583,4.415-1.034,2.625-2.625
			c-12.798-11.376-25.596-22.752-38.394-34.128c-30.469-27.083-60.938-54.167-91.407-81.25
			c-36.958-32.851-73.915-65.702-110.873-98.553c-31.951-28.401-63.901-56.801-95.852-85.202
			c-10.503-9.336-21.006-18.672-31.51-28.009c-4.945-4.396-9.733-9.47-15.069-13.395c-0.231-0.17-0.438-0.389-0.653-0.58
			C86.265-0.591,83.63,2.026,85.42,3.617L85.42,3.617z"/>
	</g>
</g>
<g>
	<g>
		<path class="st3" d="M554.457,430.012c19.251,17.113,38.503,34.225,57.754,51.338c30.55,27.156,61.1,54.311,91.65,81.467
			c7.051,6.268,14.103,12.536,21.154,18.804c1.779,1.582,4.412-1.033,2.623-2.623c-19.252-17.113-38.503-34.225-57.754-51.338
			c-30.55-27.156-61.1-54.311-91.65-81.467c-7.051-6.268-14.103-12.536-21.154-18.804
			C555.301,425.807,552.668,428.422,554.457,430.012L554.457,430.012z"/>
	</g>
</g>
<circle class="st4" cx="235.972" cy="236.823" r="21.32"/>
<circle class="st5" cx="1131.404" cy="172.271" r="21.32"/>
<g>
	<g>
		<path class="st1" d="M427.85,429.576c28.427,0,56.854,0,85.28,0c1.126,0,1.128-1.75,0-1.75c-28.427,0-56.854,0-85.28,0
			C426.724,427.826,426.722,429.576,427.85,429.576L427.85,429.576z"/>
	</g>
</g>
<g>
	<g>
		<path class="st1" d="M513.13,344.296c28.426,0,56.853,0,85.279,0c1.126,0,1.128-1.75,0-1.75c-28.426,0-56.853,0-85.279,0
			C512.004,342.546,512.003,344.296,513.13,344.296L513.13,344.296z"/>
	</g>
</g>
<g>
	<g>
		<path class="st3" d="M726.327,581.572c15.563,0,31.126,0,46.688,0c37.369,0,74.738,0,112.107,0c45.035,0,90.071,0,135.106,0
			c39.094,0,78.188,0,117.282,0c12.856,0,25.712,0,38.568,0c6.017,0,12.491,0.684,18.481,0c0.262-0.03,0.543,0,0.807,0
			c2.387,0,2.391-3.71,0-3.71c-15.563,0-31.126,0-46.688,0c-37.369,0-74.738,0-112.107,0c-45.035,0-90.071,0-135.106,0
			c-39.094,0-78.188,0-117.282,0c-12.856,0-25.712,0-38.568,0c-6.017,0-12.491-0.684-18.481,0c-0.262,0.03-0.543,0-0.807,0
			C723.94,577.862,723.936,581.572,726.327,581.572L726.327,581.572z"/>
	</g>
</g>
<g>
	<g>
		<path class="st3" d="M1.453,637.446c14.333,0,28.666,0,42.999,0c34.247,0,68.494,0,102.741,0c41.586,0,83.172,0,124.758,0
			c35.817,0,71.634,0,107.451,0c11.824,0,23.648,0,35.473,0c3.74,0,7.479,0,11.219,0c1.74,0,4.06,0.408,5.764,0
			c0.216-0.052,0.505,0,0.731,0c1.126,0,1.128-1.75,0-1.75c-14.333,0-28.666,0-42.999,0c-34.247,0-68.494,0-102.741,0
			c-41.586,0-83.172,0-124.758,0c-35.817,0-71.634,0-107.451,0c-11.824,0-23.648,0-35.473,0c-3.74,0-7.479,0-11.219,0
			c-1.74,0-4.06-0.408-5.764,0c-0.216,0.052-0.505,0-0.731,0C0.327,635.696,0.325,637.446,1.453,637.446L1.453,637.446z"/>
	</g>
</g>
<circle class="st6" cx="513.13" cy="386.062" r="42.64"/>
<circle class="st7" cx="555.769" cy="172.863" r="42.64"/>
<g>
	<g>
		<path class="st1" d="M256.673,258.761c19.157,19.157,38.313,38.313,57.47,57.47c30.674,30.674,61.349,61.348,92.023,92.023
			c7.022,7.022,14.044,14.044,21.066,21.066c0.797,0.797,2.035-0.44,1.237-1.237c-19.157-19.157-38.313-38.313-57.47-57.47
			c-30.674-30.674-61.349-61.348-92.023-92.023c-7.022-7.022-14.044-14.044-21.066-21.065
			C257.113,256.727,255.875,257.964,256.673,258.761L256.673,258.761z"/>
	</g>
</g>
<g>
	<g>
		<path class="st1" d="M599.028,344.04c14.38-14.38,28.76-28.76,43.139-43.14c22.951-22.951,45.901-45.901,68.852-68.852
			c5.309-5.309,10.618-10.618,15.927-15.927c0.797-0.797-0.44-2.035-1.237-1.237c-14.38,14.38-28.76,28.76-43.139,43.14
			c-22.951,22.951-45.901,45.901-68.852,68.852c-5.309,5.309-10.618,10.618-15.927,15.927
			C596.993,343.6,598.23,344.838,599.028,344.04L599.028,344.04z"/>
	</g>
</g>
<g>
	<g>
		<path class="st1" d="M727.202,215.503c0-24.06,0-48.12,0-72.179c0-38.178,0-76.356,0-114.534c0-8.829,0-17.657,0-26.486
			c0-1.126-1.75-1.128-1.75,0c0,24.06,0,48.12,0,72.179c0,38.178,0,76.356,0,114.534c0,8.829,0,17.657,0,26.486
			C725.452,216.629,727.202,216.631,727.202,215.503L727.202,215.503z"/>
	</g>
</g>
<g>
	<g>
		<path class="st1" d="M682.813,2.304c0,24.06,0,48.12,0,72.179c0,38.178,0,76.356,0,114.534c0,8.829,0,17.657,0,26.486
			c0,1.126,1.75,1.128,1.75,0c0-24.06,0-48.12,0-72.179c0-38.178,0-76.356,0-114.534c0-8.829,0-17.657,0-26.486
			C684.563,1.178,682.813,1.176,682.813,2.304L682.813,2.304z"/>
	</g>
</g>
<g>
	<g>
		<path class="st1" d="M683.07,214.884c-24.875,24.875-49.75,49.75-74.625,74.625c-3.551,3.551-7.103,7.103-10.654,10.654
			c-0.797,0.797,0.44,2.035,1.237,1.237c24.875-24.875,49.75-49.75,74.625-74.625c3.551-3.551,7.103-7.103,10.654-10.654
			C685.105,215.324,683.867,214.086,683.07,214.884L683.07,214.884z"/>
	</g>
</g>
<g>
	<g>
		<path class="st1" d="M598.409,299.907c-28.426,0-56.853,0-85.279,0c-1.126,0-1.128,1.75,0,1.75c28.426,0,56.853,0,85.279,0
			C599.535,301.657,599.537,299.907,598.409,299.907L598.409,299.907z"/>
	</g>
</g>
<line class="st8" x1="513.13" y1="300.782" x2="513.13" y2="300.782"/>
<g>
	<g>
		<path class="st1" d="M640.173,2.304c0,24.06,0,48.12,0,72.179c0,38.178,0,76.356,0,114.534c0,8.829,0,17.657,0,26.486
			c0,1.126,1.75,1.128,1.75,0c0-24.06,0-48.12,0-72.179c0-38.178,0-76.356,0-114.534c0-8.829,0-17.657,0-26.486
			C641.923,1.178,640.173,1.176,640.173,2.304L640.173,2.304z"/>
	</g>
</g>
<g>
	<g>
		<path class="st1" d="M640.429,214.884c-14.213,14.213-28.426,28.426-42.639,42.64c-0.797,0.797,0.44,2.035,1.237,1.237
			c14.213-14.213,28.426-28.426,42.639-42.64C642.464,215.324,641.227,214.086,640.429,214.884L640.429,214.884z"/>
	</g>
</g>
<g>
	<g>
		<path class="st1" d="M490.06,278.252c-18.207-18.207-36.413-36.413-54.62-54.62c-2.62-2.62-5.24-5.24-7.859-7.859
			c-0.797-0.797-2.035,0.44-1.237,1.237c18.207,18.207,36.413,36.413,54.62,54.62c2.62,2.62,5.24,5.24,7.859,7.859
			C489.62,280.287,490.857,279.05,490.06,278.252L490.06,278.252z"/>
	</g>
</g>
<g>
	<g>
		<path class="st1" d="M513.749,257.524c-14.51-13.917-29.019-27.834-43.529-41.752c-0.813-0.78-2.052,0.456-1.237,1.237
			c14.51,13.917,29.019,27.834,43.529,41.752C513.325,259.541,514.564,258.305,513.749,257.524L513.749,257.524z"/>
	</g>
</g>
<g>
	<g>
		<path class="st1" d="M598.409,257.268c-28.426,0-56.853,0-85.279,0c-1.126,0-1.128,1.75,0,1.75c28.426,0,56.853,0,85.279,0
			C599.535,259.018,599.537,257.268,598.409,257.268L598.409,257.268z"/>
	</g>
</g>
<circle class="st4" cx="513.13" cy="279.758" r="21.32"/>
<g>
	<g>
		<path class="st1" d="M427.837,216.391c0-14.509,0-29.019,0-43.528c0-1.126-1.75-1.128-1.75,0c0,14.509,0,29.019,0,43.528
			C426.087,217.517,427.837,217.519,427.837,216.391L427.837,216.391z"/>
	</g>
</g>
<g>
	<g>
		<path class="st1" d="M428.469,130.841c14.213-14.213,28.426-28.426,42.639-42.64c0.797-0.797-0.44-2.035-1.237-1.237
			c-14.213,14.213-28.426,28.426-42.639,42.64C426.434,130.401,427.671,131.639,428.469,130.841L428.469,130.841z"/>
	</g>
</g>
<g>
	<g>
		<path class="st1" d="M471.364,87.583c0-28.426,0-56.853,0-85.279c0-1.126-1.75-1.128-1.75,0c0,28.426,0,56.853,0,85.279
			C469.614,88.709,471.364,88.711,471.364,87.583L471.364,87.583z"/>
	</g>
</g>
<g>
	<g>
		<path class="st1" d="M427.837,172.863c0.296-14.214,0.592-28.427,0.888-42.641c0.023-1.127-1.727-1.126-1.75,0
			c-0.296,14.214-0.592,28.427-0.888,42.641C426.063,173.99,427.813,173.99,427.837,172.863L427.837,172.863z"/>
	</g>
</g>
<g>
	<g>
		<path class="st1" d="M470.477,216.391c0-14.509,0-29.019,0-43.528c0-1.126-1.75-1.128-1.75,0c0,14.509,0,29.019,0,43.528
			C468.727,217.517,470.477,217.519,470.477,216.391L470.477,216.391z"/>
	</g>
</g>
<g>
	<g>
		<path class="st1" d="M471.108,130.841c14.214-14.213,28.427-28.426,42.641-42.64c0.797-0.797-0.44-2.035-1.237-1.237
			c-14.214,14.213-28.427,28.426-42.641,42.64C469.073,130.401,470.31,131.639,471.108,130.841L471.108,130.841z"/>
	</g>
</g>
<g>
	<g>
		<path class="st1" d="M514.005,87.583c0-28.426,0-56.853,0-85.279c0-1.126-1.75-1.128-1.75,0c0,28.426,0,56.853,0,85.279
			C512.255,88.709,514.005,88.711,514.005,87.583L514.005,87.583z"/>
	</g>
</g>
<g>
	<g>
		<path class="st1" d="M470.477,172.863c0.296-14.214,0.592-28.427,0.888-42.641c0.023-1.127-1.727-1.126-1.75,0
			c-0.296,14.214-0.592,28.427-0.888,42.641C468.703,173.99,470.453,173.99,470.477,172.863L470.477,172.863z"/>
	</g>
</g>
<g>
	<g>
		<path class="st2" d="M385.829,172.245c-24.021-19.217-48.042-38.434-72.064-57.651c-38.275-30.62-76.551-61.241-114.826-91.861
			c-8.77-7.016-17.539-14.032-26.309-21.047c-0.871-0.697-2.117,0.534-1.237,1.237c24.021,19.217,48.042,38.434,72.064,57.651
			c38.275,30.62,76.551,61.241,114.826,91.861c8.77,7.016,17.539,14.032,26.309,21.047
			C385.463,174.179,386.709,172.948,385.829,172.245L385.829,172.245z"/>
	</g>
</g>
<g>
	<g>
		<path class="st2" d="M758.282,173.482c17.569,14.608,35.139,29.216,52.708,43.824c0.86,0.715,2.105-0.516,1.237-1.237
			c-17.569-14.608-35.139-29.216-52.708-43.824C758.659,171.529,757.414,172.761,758.282,173.482L758.282,173.482z"/>
	</g>
</g>
<g>
	<g>
		<path class="st2" d="M811.608,217.562c27.834,0,55.669,0,83.503,0c1.126,0,1.128-1.75,0-1.75c-27.834,0-55.669,0-83.503,0
			C810.482,215.812,810.48,217.562,811.608,217.562L811.608,217.562z"/>
	</g>
</g>
<g>
	<g>
		<path class="st2" d="M895.73,217.306c15.792-13.819,31.584-27.637,47.376-41.456c0.849-0.743-0.393-1.977-1.237-1.237
			c-15.792,13.819-31.584,27.637-47.376,41.456C893.643,216.811,894.885,218.045,895.73,217.306L895.73,217.306z"/>
	</g>
</g>
<g>
	<g>
		<path class="st2" d="M810.99,217.306c17.324,17.324,34.648,34.648,51.972,51.972c27.632,27.632,55.264,55.264,82.897,82.897
			c6.369,6.369,12.738,12.738,19.107,19.107c0.797,0.797,2.035-0.44,1.237-1.237c-17.324-17.324-34.648-34.648-51.972-51.972
			c-27.632-27.632-55.264-55.264-82.897-82.897c-6.369-6.369-12.738-12.738-19.107-19.107
			C811.43,215.271,810.192,216.508,810.99,217.306L810.99,217.306z"/>
	</g>
</g>
<g>
	<g>
		<path class="st2" d="M968.868,367.877c16.567-19.673,33.134-39.347,49.701-59.02c2.384-2.831,4.768-5.662,7.152-8.492
			c0.721-0.856-0.511-2.1-1.237-1.237c-16.567,19.673-33.134,39.347-49.701,59.02c-2.384,2.831-4.768,5.662-7.151,8.492
			C966.909,367.496,968.141,368.74,968.868,367.877L968.868,367.877z"/>
	</g>
</g>
<g>
	<g>
		<path class="st2" d="M972.344,374.306c25.758,0,51.516,0,77.274,0c40.875,0,81.75,0,122.626,0c9.434,0,18.869,0,28.303,0
			c1.126,0,1.128-1.75,0-1.75c-25.758,0-51.516,0-77.274,0c-40.875,0-81.75,0-122.626,0c-9.435,0-18.869,0-28.304,0
			C971.218,372.556,971.216,374.306,972.344,374.306L972.344,374.306z"/>
	</g>
</g>
<g>
	<g>
		<path class="st2" d="M965.656,372.074c18.82,18.82,37.64,37.64,56.46,56.46c0.797,0.797,2.035-0.44,1.237-1.237
			c-18.82-18.82-37.64-37.64-56.46-56.46C966.096,370.04,964.858,371.277,965.656,372.074L965.656,372.074z"/>
	</g>
</g>
<g>
	<g>
		<path class="st2" d="M908.903,317.537c-12.792,16.346-25.584,32.691-38.376,49.037c-20.405,26.073-40.81,52.147-61.215,78.22
			c-4.705,6.012-9.409,12.023-14.114,18.035c-0.686,0.877,0.544,2.124,1.237,1.237c12.792-16.346,25.584-32.691,38.376-49.037
			c20.405-26.073,40.81-52.147,61.215-78.22c4.705-6.012,9.409-12.023,14.114-18.035
			C910.826,317.898,909.596,316.651,908.903,317.537L908.903,317.537z"/>
	</g>
</g>
<g>
	<g>
		<path class="st2" d="M794.941,463.448c0,38.295,0,76.59,0,114.885c0,60.657,0,121.315,0,181.972c0,14,0,28,0,41.999
			c0,1.126,1.75,1.128,1.75,0c0-38.295,0-76.59,0-114.885c0-60.657,0-121.315,0-181.972c0-14,0-28,0-41.999
			C796.691,462.322,794.941,462.32,794.941,463.448L794.941,463.448z"/>
	</g>
</g>
<g>
	<g>
		<path class="st2" d="M1025.205,299.881c19.686,0,39.372,0,59.058,0c31.416,0,62.832,0,94.249,0c7.264,0,14.528,0,21.791,0
			c1.126,0,1.128-1.75,0-1.75c-19.686,0-39.372,0-59.058,0c-31.416,0-62.832,0-94.249,0c-7.264,0-14.528,0-21.791,0
			C1024.079,298.131,1024.077,299.881,1025.205,299.881L1025.205,299.881z"/>
	</g>
</g>
<g>
	<g>
		<path class="st2" d="M1023.033,429.377c19.934,0,39.867,0,59.801,0c31.833,0,63.667,0,95.5,0c7.389,0,14.778,0,22.167,0
			c1.126,0,1.128-1.75,0-1.75c-19.934,0-39.867,0-59.801,0c-31.833,0-63.667,0-95.5,0c-7.389,0-14.778,0-22.167,0
			C1021.907,427.627,1021.905,429.377,1023.033,429.377L1023.033,429.377z"/>
	</g>
</g>
<circle class="st4" cx="150.692" cy="236.823" r="21.32"/>
<g>
	<g>
		<path class="st1" d="M150.321,341.274c-22.374,22.374-44.748,44.747-67.122,67.121c-3.19,3.19-6.38,6.38-9.57,9.57
			c-0.478,0.478,0.264,1.221,0.742,0.742c22.374-22.374,44.748-44.747,67.122-67.121c3.19-3.19,6.38-6.38,9.57-9.57
			C151.542,341.538,150.8,340.795,150.321,341.274L150.321,341.274z"/>
	</g>
</g>
<g>
	<g>
		<path class="st1" d="M938.651,2.304c0,41.526,0,83.051,0,124.577c0,5.852,0,11.704,0,17.556c0,1.126,1.75,1.128,1.75,0
			c0-41.526,0-83.051,0-124.577c0-5.852,0-11.704,0-17.556C940.401,1.178,938.651,1.176,938.651,2.304L938.651,2.304z"/>
	</g>
</g>
<g>
	<g>
		<path class="st1" d="M981.292,2.304c0,41.526,0,83.051,0,124.577c0,5.852,0,11.704,0,17.556c0,1.126,1.75,1.128,1.75,0
			c0-41.526,0-83.051,0-124.577c0-5.852,0-11.704,0-17.556C983.042,1.178,981.292,1.176,981.292,2.304L981.292,2.304z"/>
	</g>
</g>
<g>
	<g>
		<path class="st1" d="M896.013,2.304c0,41.526,0,83.051,0,124.577c0,5.852,0,11.704,0,17.556c0,1.126,1.75,1.128,1.75,0
			c0-41.526,0-83.051,0-124.577c0-5.852,0-11.704,0-17.556C897.763,1.178,896.013,1.176,896.013,2.304L896.013,2.304z"/>
	</g>
</g>
<g>
	<g>
		<path class="st1" d="M853.372,2.304c0,41.526,0,83.051,0,124.577c0,5.852,0,11.704,0,17.556c0,1.126,1.75,1.128,1.75,0
			c0-41.526,0-83.051,0-124.577c0-5.852,0-11.704,0-17.556C855.122,1.178,853.372,1.176,853.372,2.304L853.372,2.304z"/>
	</g>
</g>
<g>
	<g>
		<path class="st3" d="M433.48,637.017c12.477-12.313,24.955-24.627,37.432-36.94c0.803-0.792-0.435-2.03-1.237-1.237
			c-12.477,12.313-24.955,24.627-37.432,36.94C431.439,636.572,432.677,637.809,433.48,637.017L433.48,637.017z"/>
	</g>
</g>
<g id="K">
	<g>
		<path class="st1" d="M163.61,518.326l-53.675,54.418l53.489,53.491c0,0,54.044,7.268,54.044-54.05
			C217.469,510.873,163.61,518.326,163.61,518.326z M58.306,625.674h27.21V518.699h-27.21V625.674z"/>
	</g>
	<g>
		<g>
			<path class="st2" d="M162.992,517.707c-17.892,18.139-35.783,36.279-53.675,54.418c-0.332,0.336-0.337,0.901,0,1.237
				c12.677,12.678,25.355,25.356,38.032,38.034c3.417,3.417,6.833,6.833,10.25,10.25c1.501,1.501,3.177,3.909,5.014,5.015
				c2.284,1.375,6.327,0.77,8.888,0.646c17.61-0.852,33.85-9.576,41.353-26.056c5.968-13.109,6.679-28.877,4.448-42.929
				c-1.791-11.283-6.487-22.31-15.263-29.906c-10.198-8.827-25.316-12.738-38.661-10.933c-1.111,0.15-0.638,1.837,0.465,1.688
				c17.012-2.301,36.881,5.464,45.768,21.377c9.012,16.136,9.352,39.054,3.192,56.204c-4.61,12.834-14.49,22.393-27.507,26.425
				c-6.33,1.961-14.538,3.543-21.215,2.256c-1.063-0.205-0.101,0.105-0.147,0.076c-0.879-0.552-1.698-1.698-2.425-2.425
				c-3.571-3.571-7.141-7.141-10.712-10.712c-9.988-9.989-19.977-19.978-29.965-29.966c-2.818-2.818-5.911-7.249-9.33-9.331
				c-1.734-1.056,0.276-0.905-0.899,0.241c0.728-0.71,1.43-1.45,2.145-2.174c17.161-17.398,34.321-34.797,51.482-52.195
				C165.021,518.142,163.784,516.904,162.992,517.707z"/>
			<path class="st2" d="M58.306,626.549c9.07,0,18.14,0,27.21,0c0.473,0,0.875-0.401,0.875-0.875c0-31.221,0-62.443,0-93.664
				c0-4.437,0-8.874,0-13.311c0-0.473-0.401-0.875-0.875-0.875c-9.07,0-18.14,0-27.21,0c-0.473,0-0.875,0.401-0.875,0.875
				c0,31.221,0,62.443,0,93.664c0,4.437,0,8.874,0,13.311c0,1.126,1.75,1.128,1.75,0c0-17.165,0-34.33,0-51.495
				c0-12.09,0-24.181,0-36.271c0-6.208,0.668-12.832,0-19.015c-0.064-0.593-0.566,0.67-0.827,0.68c0.473-0.018,1.064-0.072,1.53,0
				c2.413,0.373,5.177,0,7.62,0c3.095,0,6.189,0,9.284,0c2.065,0,5.63,0.676,7.614,0c1.546-0.527,0.221-0.365,0.24-0.572
				c-0.07,0.755,0,1.553,0,2.31c0,3.452,0,6.904,0,10.356c0,23.717,0,47.434,0,71.151c0,7.399-0.795,15.293,0,22.661
				c0.072,0.666,1.263-0.611,0.687-0.68c-0.812-0.097-1.703,0-2.516,0c-3.137,0-6.274,0-9.411,0c-5.032,0-10.064,0-15.096,0
				C57.18,624.799,57.178,626.549,58.306,626.549z"/>
		</g>
	</g>
</g>
<g id="Y">
	<g>
		<path class="st1" d="M283.358,521.502h-46.36l11.59,20.071l11.594,20.075l11.586-20.075L283.358,521.502z M269.279,567.9v58.148
			h15.657V567.9H269.279z M233.496,626.048h15.657V567.9h-15.657V626.048z"/>
	</g>
	<g>
		<g>
			<path class="st2" d="M283.358,520.627c-15.453,0-30.907,0-46.36,0c-0.666,0-1.087,0.743-0.756,1.317
				c7.728,13.382,15.456,26.764,23.184,40.146c0.328,0.568,1.183,0.568,1.511,0c7.723-13.383,15.449-26.765,23.176-40.146
				c0.564-0.977-0.947-1.859-1.511-0.883c-7.727,13.381-15.452,26.763-23.176,40.146c0.504,0,1.007,0,1.511,0
				c-7.728-13.382-15.456-26.764-23.184-40.146c-0.252,0.439-0.504,0.878-0.756,1.317c15.453,0,30.907,0,46.36,0
				C284.484,522.377,284.486,520.627,283.358,520.627z"/>
			<path class="st2" d="M268.404,567.9c0,19.383,0,38.766,0,58.148c0,0.473,0.401,0.875,0.875,0.875c5.219,0,10.438,0,15.657,0
				c0.473,0,0.875-0.401,0.875-0.875c0-19.383,0-38.766,0-58.148c0-0.473-0.401-0.875-0.875-0.875c-5.219,0-10.438,0-15.657,0
				c-1.126,0-1.128,1.75,0,1.75c5.084,0,10.278,0.331,15.349,0c0.51-0.033-0.451-1.4-0.567-0.526c-0.058,0.442,0.066,0.91,0,1.351
				c-0.284,1.884,0,4.046,0,5.945c0,13.03,0,26.06,0,39.091c0,3.599,0.519,7.643,0,11.214c0.03-0.209,1.317-0.357,0.202-0.677
				c-0.934-0.268-2.4,0-3.387,0c-3.108,0-6.789-0.534-9.842,0c-2.018,0.353-1.112-0.726-0.881,0.819c-0.036-0.238-0.079-0.78,0-0.99
				c0.486-1.293,0-3.89,0-5.258c0-5.945,0-11.891,0-17.836c0-11.336,0-22.672,0-34.009
				C270.154,566.774,268.404,566.772,268.404,567.9z"/>
			<path class="st2" d="M233.496,626.923c5.219,0,10.438,0,15.657,0c0.473,0,0.875-0.401,0.875-0.875c0-19.383,0-38.766,0-58.148
				c0-0.473-0.401-0.875-0.875-0.875c-5.219,0-10.438,0-15.657,0c-0.473,0-0.875,0.401-0.875,0.875c0,19.383,0,38.766,0,58.148
				c0,1.126,1.75,1.128,1.75,0c0-9.361,0-18.722,0-28.083c0-6.742,0-13.483,0-20.225c0-3.039-0.602-6.758,0-9.751
				c-0.332,1.653-1.168,0.297,0.583,0.786c1.254,0.35,3.131,0,4.432,0c2.536,0,6.657,0.807,9.095,0
				c1.087-0.36-0.167-0.433-0.202-0.677c0.045,0.307,0.063,0.851,0,1.156c-0.351,1.706,0,3.877,0,5.607c0,12.986,0,25.972,0,38.958
				c0,3.771,0.747,8.422,0,12.14c0.24-1.194,0.954-0.786-1.226-0.786c-1.746,0-3.493,0-5.239,0c-2.772,0-5.544,0-8.316,0
				C232.37,625.173,232.368,626.923,233.496,626.923z"/>
		</g>
	</g>
</g>
<g id="E">
	<g>
		<polygon class="st1" points="390.05,518.699 390.05,546.281 365.45,546.281 365.45,560.447 390.05,560.447 390.05,585.42
			365.45,585.42 365.45,599.584 390.05,599.584 390.05,626.048 407.196,626.048 407.196,518.699 		"/>
	</g>
	<g>
		<g>
			<path class="st2" d="M389.175,518.699c0,9.034-0.397,18.156,0,27.18c0.04,0.9,1.283-0.394,0.542-0.473
				c-0.743-0.079-1.554,0-2.297,0c-2.726,0-5.451,0-8.177,0c-4.598,0-9.195,0-13.793,0c-0.473,0-0.875,0.401-0.875,0.875
				c0,4.722,0,9.444,0,14.166c0,0.473,0.401,0.875,0.875,0.875c6.981,0,13.961,0,20.942,0c1.104,0,2.223,0.058,3.325,0
				c-0.798,0.042,0.001-1.358-0.542,0.308c-1.001,3.076,0,8.069,0,11.303c0,3.45-0.704,7.682,0,11.06
				c0.424,2.034-0.519,0.467,0.667,0.552c-1.137-0.082-2.31,0-3.451,0c-6.981,0-13.961,0-20.942,0c-0.473,0-0.875,0.401-0.875,0.875
				c0,4.721,0,9.443,0,14.164c0,0.473,0.401,0.875,0.875,0.875c4.266,0,8.533,0,12.799,0c2.832,0,5.664,0,8.496,0
				c0.711,0,1.838,0.243,2.505,0c1.326-0.482-0.106,0.174-0.075-0.683c-0.319,8.733,0,17.532,0,26.272
				c0,0.473,0.401,0.875,0.875,0.875c5.715,0,11.431,0,17.146,0c0.473,0,0.875-0.401,0.875-0.875c0-31.267,0-62.535,0-93.802
				c0-4.516,0-9.032,0-13.548c0-0.473-0.401-0.875-0.875-0.875c-5.715,0-11.431,0-17.146,0c-1.126,0-1.128,1.75,0,1.75
				c5.602,0,11.504-0.575,17.072,0c-1.414-0.146-0.535-1.334-0.801,0.805c-0.188,1.51,0,3.173,0,4.69c0,13.126,0,26.252,0,39.379
				c0,15.066,0,30.132,0,45.199c0,4.489,0,8.978,0,13.468c0,0.899,0.083,1.845,0,2.741c-0.007,0.073,1.229-0.304,0.243-0.682
				c-1.261-0.483-3.686,0-5.026,0c-3.202,0-7.77-0.869-10.856,0c-0.298,0.084-0.266,1.293,0.243-0.262c0.402-1.228,0-3.292,0-4.579
				c0-6.916,0-13.832,0-20.748c0-0.473-0.401-0.875-0.875-0.875c-5.721,0-11.441,0-17.162,0c-2.397,0-4.836,0.13-7.231,0
				c1.23,0.067,0.321,1.198,0.667-0.987c0.263-1.657,0-3.54,0-5.22c0-1.659,0.263-3.578,0-5.22
				c-0.316-1.974,0.655-1.244-0.745-0.987c2.126-0.39,4.697,0,6.846,0c5.875,0,11.749,0,17.624,0c0.473,0,0.875-0.401,0.875-0.875
				c0-8.325,0-16.649,0-24.974c0-0.473-0.401-0.875-0.875-0.875c-5.721,0-11.441,0-17.162,0c-2.397,0-4.836,0.13-7.231,0
				c1.231,0.067,0.321,1.198,0.667-0.988c0.263-1.657,0-3.54,0-5.22c0-1.659,0.263-3.578,0-5.22
				c-0.316-1.975,0.655-1.244-0.745-0.988c2.126-0.39,4.697,0,6.846,0c5.875,0,11.749,0,17.624,0c0.473,0,0.875-0.401,0.875-0.875
				c0-9.194,0-18.388,0-27.582C390.925,517.573,389.175,517.571,389.175,518.699z"/>
		</g>
	</g>
</g>
<g id="L">
	<g>
		<polygon class="st1" points="325.192,607.412 325.192,520.191 308.791,520.191 308.791,624.559 352.772,624.559 352.772,607.412
					"/>
	</g>
	<g>
		<g>
			<path class="st2" d="M326.067,607.412c0-25.43,0-50.86,0-76.29c0-3.644,0-7.287,0-10.931c0-0.473-0.401-0.875-0.875-0.875
				c-5.467,0-10.934,0-16.401,0c-0.473,0-0.875,0.401-0.875,0.875c0,30.373,0,60.747,0,91.12c0,4.416,0,8.832,0,13.248
				c0,0.473,0.401,0.875,0.875,0.875c14.661,0,29.321,0,43.982,0c0.473,0,0.875-0.401,0.875-0.875c0-5.716,0-11.432,0-17.147
				c0-0.473-0.401-0.875-0.875-0.875c-9.193,0-18.387,0-27.58,0c-1.126,0-1.128,1.75,0,1.75c4.925,0,9.85,0,14.774,0
				c2.953,0,5.907,0,8.86,0c0.806,0,2.095,0.257,2.866,0c0.181-0.06,0.692-0.032,0.898,0c0.217,0.034-0.602-1.38-0.693-0.415
				c-0.488,5.134-0.566,11.273,0,16.398c0.018,0.163,1.427-0.44,0.41-0.586c-0.565-0.081-1.193,0-1.765,0c-2.622,0-5.244,0-7.866,0
				c-11.183,0-22.604-0.695-33.766,0c1.785-0.111,0.199,1.541,0.756-0.115c0.333-0.989,0-2.614,0-3.66c0-4.587,0-9.174,0-13.762
				c0-25.53,0-51.06,0-76.59c0-2.485,0.698-6.17,0-8.582c-0.048-0.167-0.029-0.524,0-0.704c-0.268,1.647-1.304,0.313,0.25,0.793
				c2.617,0.809,6.744,0,9.503,0c1.262,0,2.818,0.212,4.068,0c2.12-0.36,1.067,0.731,0.831-0.86c0.105,0.707,0,1.508,0,2.219
				c0,4.114,0,8.228,0,12.342c0,24.215,0,48.43,0,72.644C324.317,608.538,326.067,608.539,326.067,607.412z"/>
		</g>
	</g>
</g>
</svg>
