<svg id="Layer_1" xmlns="http://www.w3.org/2000/svg" width="1202" height="803.7" viewBox="0 0 1202 803.7" enable-background="new 0 0 1202 803.7"><style>.st0{filter:url(#AI_GaussianBlur_4);} .st1{fill:#414042;stroke:#414042;stroke-miterlimit:10;} .st2{fill:#AFDFE4;} .st3{fill:#00B0D8;} .st4{fill:#ACDFEA;} .st5{fill:none;stroke:#00B0D8;stroke-width:2;} .st6{fill:none;stroke:#662D91;stroke-width:2;} .st7{fill:none;stroke:#00B0D8;stroke-width:4;} .st8{fill:none;stroke:#662D91;stroke-width:4;} .st9{fill:none;stroke:#AFDFE4;stroke-width:0.25;}</style><filter id="AI_GaussianBlur_4"><feGaussianBlur stdDeviation="2"/></filter><g id="Layer_1" class="st0"><path class="st1" d="M.5.5h1201v802.7H.5z"/><path class="st2" d="M259.1 425.1v92.8c0 .7 1.1.7 1.1 0v-81.2-11.6c0-.6-1.1-.6-1.1 0zM315.2 427.5v88.1c0 .7 1.1.7 1.1 0v-77-11.1c-.1-.7-1.1-.7-1.1 0zM394.2 429.5V515c0 .7 1 .7 1 0v-74.8-10.7c0-.7-1-.7-1 0zM173.7 463.2v50.7c0 .7 1 .7 1 0v-50.7c0-.6-1-.6-1 0zM73.2 518.1V432v-12.5c0-.7-1-.7-1 0v98.6c0 .7 1 .7 1 0z"/><path class="st2" d="M235.6 401.1L181.7 455l-7.9 7.9c-.5.5.3 1.2.7.7l53.9-53.9 7.9-7.9c.5-.4-.2-1.2-.7-.7zM512.5 513.4L469.9 556c-.8.8.4 2 1.2 1.2l42.6-42.6c.8-.8-.4-2-1.2-1.2zM555.1 513.4L512.5 556c-.8.8.4 2 1.2 1.2l42.6-42.6c.9-.8-.4-2-1.2-1.2zM597.8 513.4L555.2 556c-.8.8.4 2 1.2 1.2l42.6-42.6c.8-.8-.4-2-1.2-1.2zM640.4 513.4L597.8 556c-.8.8.4 2 1.2 1.2l42.6-42.6c.9-.8-.4-2-1.2-1.2zM853.5 144.9c24.9 33.2 49.8 66.4 74.7 99.7 3.5 4.7 7 9.4 10.5 14 .7.9 2.2 0 1.5-.9-24.9-33.2-49.8-66.4-74.7-99.7-3.5-4.7-7-9.4-10.5-14-.7-.9-2.2 0-1.5.9z"/><path class="st2" d="M938.7 258.1v170.5c0 1.1 1.8 1.1 1.8 0V279v-20.9c-.1-1.1-1.8-1.1-1.8 0z"/><path class="st2" d="M938.9 428.1l-74.6 74.6-10.7 10.7c-.8.8.4 2 1.2 1.2l74.6-74.6 10.7-10.7c.8-.8-.4-2-1.2-1.2z"/><path class="st3" d="M854.2 513.1H513.1c-1.1 0-1.1 1.8 0 1.8h341.1c1.2 0 1.2-1.8 0-1.8z"/><path class="st2" d="M469.6 556.6V802.2c0 1.1 1.8 1.1 1.8 0v-83-132.3-30.3c0-1.1-1.8-1.1-1.8 0zM896.1 144.9c24.9 33.2 49.8 66.4 74.7 99.7 3.5 4.7 7 9.4 10.5 14 .7.9 2.2 0 1.5-.9-24.9-33.2-49.8-66.4-74.7-99.7-3.5-4.7-7-9.4-10.5-14-.6-.9-2.1 0-1.5.9z"/><path class="st2" d="M981.3 258.1v170.5c0 1.1 1.8 1.1 1.8 0V279v-20.9c-.1-1.1-1.8-1.1-1.8 0z"/><path class="st2" d="M981.5 428.1l-74.6 74.6-10.7 10.7c-.8.8.4 2 1.2 1.2L972 440l10.7-10.7c.9-.8-.4-2-1.2-1.2z"/><path class="st3" d="M896.9 513.1H555.8c-1.1 0-1.1 1.8 0 1.8h341.1c1.1 0 1.1-1.8 0-1.8z"/><path class="st2" d="M512.3 556.6V802.2c0 1.1 1.8 1.1 1.8 0v-83-132.3-30.3c-.1-1.1-1.8-1.1-1.8 0zM938.8 144.9c24.9 33.2 49.8 66.4 74.7 99.7 3.5 4.7 7 9.4 10.5 14 .7.9 2.2 0 1.5-.9-24.9-33.2-49.8-66.4-74.7-99.7-3.5-4.7-7-9.4-10.5-14-.7-.9-2.2 0-1.5.9z"/><path class="st2" d="M1023.9 258.1v170.5c0 1.1 1.8 1.1 1.8 0V279v-20.9c0-1.1-1.8-1.1-1.8 0z"/><path class="st2" d="M1024.2 428.1c-24.9 24.9-49.7 49.8-74.6 74.6l-10.7 10.7c-.8.8.4 2 1.2 1.2 24.9-24.9 49.7-49.8 74.6-74.6l10.7-10.7c.8-.8-.4-2-1.2-1.2z"/><path class="st3" d="M939.5 513.1H598.4c-1.1 0-1.1 1.8 0 1.8h341.1c1.2 0 1.2-1.8 0-1.8z"/><path class="st2" d="M554.9 556.6V802.2c0 1.1 1.8 1.1 1.8 0v-83-132.3-30.3c-.1-1.1-1.8-1.1-1.8 0zM981.4 144.9c24.9 33.2 49.8 66.4 74.7 99.7 3.5 4.7 7 9.4 10.5 14 .7.9 2.2 0 1.5-.9-24.9-33.2-49.8-66.4-74.7-99.7-3.5-4.7-7-9.4-10.5-14-.6-.9-2.2 0-1.5.9z"/><path class="st2" d="M1066.6 258.1v170.5c0 1.1 1.8 1.1 1.8 0V279v-20.9c-.1-1.1-1.8-1.1-1.8 0z"/><path class="st2" d="M1066.8 428.1c-24.9 24.9-49.7 49.8-74.6 74.6l-10.7 10.7c-.8.8.4 2 1.2 1.2 24.9-24.9 49.7-49.8 74.6-74.6l10.7-10.7c.9-.8-.4-2-1.2-1.2z"/><path class="st3" d="M982.2 513.1H641.1c-1.1 0-1.1 1.8 0 1.8h341.1c1.1 0 1.1-1.8 0-1.8z"/><path class="st2" d="M597.5 556.6V802.2c0 1.1 1.8 1.1 1.8 0v-83-132.3-30.3c0-1.1-1.8-1.1-1.8 0zM235.4 258.1v143.4c0 .7 1.1.7 1.1 0V275.7v-17.6c0-.6-1.1-.6-1.1 0z"/><path class="st2" d="M235.6 401.8l23.7 23.7c.5.5 1.2-.3.7-.7l-23.7-23.7c-.4-.5-1.2.3-.7.7zM316.1 427.1l-69.8-69.8-9.9-9.9c-.5-.5-1.2.3-.7.7l69.8 69.8 9.9 9.9c.4.6 1.2-.2.7-.7zM395.1 429.1l-53.6-53.6L256 290l-19.6-19.6c-.5-.5-1.2.3-.7.7l53.6 53.6 85.5 85.5 19.6 19.6c.4.5 1.1-.2.7-.7zM150.2 258.1v83.5c0 .7 1.1.7 1.1 0v-83.5c-.1-.6-1.1-.6-1.1 0z"/><path class="st3" d="M598.4 173.7H759.5c1.1 0 1.1-1.8 0-1.8H598.4c-1.1.1-1.1 1.8 0 1.8zM944.3 175.3H1105.4c1.1 0 1.1-1.8 0-1.8H944.3c-1.2.1-1.2 1.8 0 1.8zM513.1 172H385.2c-1.1 0-1.1 1.8 0 1.8h127.9c1.2-.1 1.2-1.8 0-1.8z"/><path class="st4" d="M.8 89.4c14.4 14.2 28.7 28.4 43.1 42.7 23 22.8 46 45.6 69.1 68.4 5.3 5.2 10.5 10.4 15.8 15.6.8.8 2-.4 1.2-1.2-14.4-14.2-28.7-28.4-43.1-42.7-23-22.8-46-45.6-69.1-68.4-5.2-5.2-10.5-10.4-15.7-15.7-.8-.7-2.1.5-1.3 1.3zM.8 2.9L73 75.1 187.9 190l26.1 26.1c.8.8 2-.4 1.2-1.2L143 142.7C104.8 104.4 66.5 66.1 28.2 27.8L2.1 1.7C1.3.9 0 2.1.8 2.9zM85.4 3.6C98.2 15 111 26.4 123.8 37.7c30.5 27.1 60.9 54.2 91.4 81.3 37 32.9 73.9 65.7 110.9 98.6 32 28.4 63.9 56.8 95.9 85.2 10.5 9.3 21 18.7 31.5 28 4.9 4.4 9.7 9.5 15.1 13.4.2.2.4.4.7.6 1.8 1.6 4.4-1 2.6-2.6-12.8-11.4-25.6-22.8-38.4-34.1-30.5-27.1-60.9-54.2-91.4-81.3-37-32.9-73.9-65.7-110.9-98.6-32-28.4-63.9-56.8-95.9-85.2-10.5-9.3-21-18.7-31.5-28-5-4.4-9.8-9.5-15.1-13.4-.2-.2-.4-.4-.7-.6-1.7-1.6-4.4 1-2.6 2.6zM554.5 430c19.3 17.1 38.5 34.2 57.8 51.3 30.6 27.2 61.1 54.3 91.7 81.5 7.1 6.3 14.1 12.5 21.2 18.8 1.8 1.6 4.4-1 2.6-2.6-19.3-17.1-38.5-34.2-57.8-51.3-30.6-27.2-61.1-54.3-91.7-81.5-7.1-6.3-14.1-12.5-21.2-18.8-1.8-1.6-4.4 1-2.6 2.6z"/><circle class="st5" cx="236" cy="236.8" r="21.3"/><circle class="st6" cx="1131.4" cy="172.3" r="21.3"/><path class="st2" d="M427.9 429.6h85.3c1.1 0 1.1-1.8 0-1.8h-85.3c-1.2 0-1.2 1.8 0 1.8zM513.1 344.3h85.3c1.1 0 1.1-1.8 0-1.8h-85.3c-1.1 0-1.1 1.8 0 1.8z"/><path class="st4" d="M726.3 581.6h449.8c6 0 12.5.7 18.5 0h.8c2.4 0 2.4-3.7 0-3.7H745.6c-6 0-12.5-.7-18.5 0h-.8c-2.4 0-2.4 3.7 0 3.7zM1.5 637.4h424.7c1.7 0 4.1.4 5.8 0 .2-.1.5 0 .7 0 1.1 0 1.1-1.8 0-1.8H8c-1.7 0-4.1-.4-5.8 0-.2.1-.5 0-.7 0-1.2.1-1.2 1.8 0 1.8z"/><circle class="st7" cx="513.1" cy="386.1" r="42.6"/><circle class="st8" cx="555.8" cy="172.9" r="42.6"/><path class="st2" d="M256.7 258.8l57.5 57.5 92 92 21.1 21.1c.8.8 2-.4 1.2-1.2L371 370.7l-92-92-21.1-21.1c-.8-.9-2 .4-1.2 1.2zM599 344l43.1-43.1L711 232l15.9-15.9c.8-.8-.4-2-1.2-1.2L682.6 258l-68.9 68.9-15.9 15.9c-.8.8.4 2 1.2 1.2z"/><path class="st2" d="M727.2 215.5v-72.2V28.8 2.3c0-1.1-1.8-1.1-1.8 0v213.2c.1 1.1 1.8 1.1 1.8 0zM682.8 2.3v213.2c0 1.1 1.8 1.1 1.8 0v-72.2V28.8 2.3c0-1.1-1.8-1.1-1.8 0z"/><path class="st2" d="M683.1 214.9l-74.6 74.6-10.7 10.7c-.8.8.4 2 1.2 1.2l74.6-74.6 10.7-10.7c.8-.8-.4-2-1.2-1.2z"/><path class="st2" d="M598.4 299.9h-85.3c-1.1 0-1.1 1.8 0 1.8h85.3c1.1 0 1.1-1.8 0-1.8z"/><path class="st9" d="M513.1 300.8"/><path class="st2" d="M640.2 2.3v213.2c0 1.1 1.8 1.1 1.8 0v-72.2V28.8 2.3c-.1-1.1-1.8-1.1-1.8 0z"/><path class="st2" d="M640.4 214.9l-42.6 42.6c-.8.8.4 2 1.2 1.2l42.6-42.6c.9-.8-.4-2-1.2-1.2zM490.1 278.3l-54.6-54.6-7.9-7.9c-.8-.8-2 .4-1.2 1.2l54.6 54.6 7.9 7.9c.7.8 2-.5 1.2-1.2zM513.7 257.5c-14.5-13.9-29-27.8-43.5-41.8-.8-.8-2.1.5-1.2 1.2 14.5 13.9 29 27.8 43.5 41.8.8.8 2.1-.4 1.2-1.2z"/><path class="st2" d="M598.4 257.3h-85.3c-1.1 0-1.1 1.8 0 1.8h85.3c1.1-.1 1.1-1.8 0-1.8z"/><circle class="st5" cx="513.1" cy="279.8" r="21.3"/><path class="st2" d="M427.8 216.4v-43.5c0-1.1-1.8-1.1-1.8 0v43.5c.1 1.1 1.8 1.1 1.8 0zM428.5 130.8l42.6-42.6c.8-.8-.4-2-1.2-1.2l-42.6 42.6c-.9.8.4 2 1.2 1.2z"/><path class="st2" d="M471.4 87.6V2.3c0-1.1-1.8-1.1-1.8 0v85.3c0 1.1 1.8 1.1 1.8 0zM427.8 172.9l.9-42.6c0-1.1-1.7-1.1-1.8 0l-.9 42.6c.1 1.1 1.8 1.1 1.8 0zM470.5 216.4v-43.5c0-1.1-1.8-1.1-1.8 0v43.5c0 1.1 1.8 1.1 1.8 0zM471.1 130.8l42.6-42.6c.8-.8-.4-2-1.2-1.2l-42.6 42.6c-.8.8.4 2 1.2 1.2z"/><path class="st2" d="M514 87.6V2.3c0-1.1-1.8-1.1-1.8 0v85.3c.1 1.1 1.8 1.1 1.8 0zM470.5 172.9l.9-42.6c0-1.1-1.7-1.1-1.8 0l-.9 42.6c0 1.1 1.8 1.1 1.8 0z"/><path class="st3" d="M385.8 172.2c-24-19.2-48-38.4-72.1-57.7-38.2-30.5-76.5-61.1-114.8-91.8-8.8-7-17.5-14-26.3-21-.9-.7-2.1.5-1.2 1.2 24 19.2 48 38.4 72.1 57.7 38.3 30.6 76.6 61.2 114.8 91.9 8.8 7 17.5 14 26.3 21 .9.7 2.1-.6 1.2-1.3zM758.3 173.5c17.6 14.6 35.1 29.2 52.7 43.8.9.7 2.1-.5 1.2-1.2-17.6-14.6-35.1-29.2-52.7-43.8-.8-.8-2.1.5-1.2 1.2z"/><path class="st3" d="M811.6 217.6h83.5c1.1 0 1.1-1.8 0-1.8h-83.5c-1.1 0-1.1 1.8 0 1.8z"/><path class="st3" d="M895.7 217.3c15.8-13.8 31.6-27.6 47.4-41.5.8-.7-.4-2-1.2-1.2-15.8 13.8-31.6 27.6-47.4 41.5-.9.7.4 1.9 1.2 1.2zM811 217.3l52 52 82.9 82.9 19.1 19.1c.8.8 2-.4 1.2-1.2l-52-52-82.9-82.9-19.1-19.1c-.8-.8-2 .4-1.2 1.2zM968.9 367.9c16.6-19.7 33.1-39.3 49.7-59 2.4-2.8 4.8-5.7 7.2-8.5.7-.9-.5-2.1-1.2-1.2-16.6 19.7-33.1 39.3-49.7 59-2.4 2.8-4.8 5.7-7.2 8.5-.8.8.4 2 1.2 1.2zM972.3 374.3h228.2c1.1 0 1.1-1.8 0-1.8H972.3c-1.1.1-1.1 1.8 0 1.8z"/><path class="st3" d="M965.7 372.1l56.5 56.5c.8.8 2-.4 1.2-1.2l-56.5-56.5c-.8-.9-2 .4-1.2 1.2zM908.9 317.5c-12.8 16.3-25.6 32.7-38.4 49-20.4 26.1-40.8 52.1-61.2 78.2l-14.1 18c-.7.9.5 2.1 1.2 1.2 12.8-16.3 25.6-32.7 38.4-49 20.4-26.1 40.8-52.1 61.2-78.2l14.1-18c.7-.8-.5-2-1.2-1.2z"/><path class="st3" d="M794.9 463.4v338.9c0 1.1 1.8 1.1 1.8 0V687.4v-182-42c0-1.1-1.8-1.1-1.8 0zM1025.2 299.9H1200.3c1.1 0 1.1-1.8 0-1.8H1025.2c-1.1 0-1.1 1.8 0 1.8zM1023 429.4h177.5c1.1 0 1.1-1.8 0-1.8H1023c-1.1 0-1.1 1.8 0 1.8z"/><circle class="st5" cx="150.7" cy="236.8" r="21.3"/><path class="st2" d="M150.3 341.3l-67.1 67.1-9.6 9.6c-.5.5.3 1.2.7.7l67.1-67.1 9.6-9.6c.5-.5-.2-1.2-.7-.7zM938.7 2.3v142.2c0 1.1 1.8 1.1 1.8 0V19.9 2.3c-.1-1.1-1.8-1.1-1.8 0zM981.3 2.3v142.2c0 1.1 1.8 1.1 1.8 0V19.9 2.3c-.1-1.1-1.8-1.1-1.8 0zM896 2.3v142.2c0 1.1 1.8 1.1 1.8 0V19.9 2.3c0-1.1-1.8-1.1-1.8 0zM853.4 2.3v142.2c0 1.1 1.8 1.1 1.8 0V19.9 2.3c-.1-1.1-1.8-1.1-1.8 0z"/><path class="st4" d="M433.5 637c12.5-12.3 25-24.6 37.4-36.9.8-.8-.4-2-1.2-1.2-12.5 12.3-25 24.6-37.4 36.9-.9.8.4 2 1.2 1.2z"/><g id="K_2_"><path class="st2" d="M163.6 518.3l-53.7 54.4 53.5 53.5s54 7.3 54-54c.1-61.3-53.8-53.9-53.8-53.9zM58.3 625.7h27.2v-107H58.3v107z"/><path class="st3" d="M163 517.7c-17.9 18.1-35.8 36.3-53.7 54.4-.3.3-.3.9 0 1.2l38 38c3.4 3.4 6.8 6.8 10.2 10.3 1.5 1.5 3.2 3.9 5 5 2.3 1.4 6.3.8 8.9.6 17.6-.9 33.9-9.6 41.4-26.1 6-13.1 6.7-28.9 4.4-42.9-1.8-11.3-6.5-22.3-15.3-29.9-10.2-8.8-25.3-12.7-38.7-10.9-1.1.2-.6 1.8.5 1.7 17-2.3 36.9 5.5 45.8 21.4 9 16.1 9.4 39.1 3.2 56.2-4.6 12.8-14.5 22.4-27.5 26.4-6.3 2-14.5 3.5-21.2 2.3-1.1-.2-.1.1-.1.1-.9-.6-1.7-1.7-2.4-2.4l-10.7-10.7-30-30c-2.8-2.8-5.9-7.2-9.3-9.3-1.7-1.1.3-.9-.9.2.7-.7 1.4-1.5 2.1-2.2 17.2-17.4 34.3-34.8 51.5-52.2.8-.8-.4-2-1.2-1.2zM58.3 626.5h27.2c.5 0 .9-.4.9-.9v-93.7-13.3c0-.5-.4-.9-.9-.9H58.3c-.5 0-.9.4-.9.9v107c0 1.1 1.8 1.1 1.8 0v-51.5-36.3c0-6.2.7-12.8 0-19-.1-.6-.6.7-.8.7.5 0 1.1-.1 1.5 0 2.4.4 5.2 0 7.6 0h9.3c2.1 0 5.6.7 7.6 0 1.5-.5.2-.4.2-.6-.1.8 0 1.6 0 2.3V602.8c0 7.4-.8 15.3 0 22.7.1.7 1.3-.6.7-.7-.8-.1-1.7 0-2.5 0H58.3c-1.1 0-1.1 1.7 0 1.7z"/></g><g id="Y_2_"><path class="st2" d="M283.4 521.5H237l11.6 20.1 11.6 20.1 11.6-20.1 11.6-20.1zm-14.1 46.4V626H285v-58.1h-15.7zM233.5 626h15.7v-58.1h-15.7V626z"/><path class="st3" d="M283.4 520.6H237c-.7 0-1.1.7-.8 1.3 7.7 13.4 15.5 26.8 23.2 40.1.3.6 1.2.6 1.5 0 7.7-13.4 15.4-26.8 23.2-40.1.6-1-.9-1.9-1.5-.9-7.7 13.4-15.5 26.8-23.2 40.1h1.5c-7.7-13.4-15.5-26.8-23.2-40.1-.3.4-.5.9-.8 1.3h46.4c1.2.1 1.2-1.7.1-1.7zM268.4 567.9V626c0 .5.4.9.9.9H285c.5 0 .9-.4.9-.9v-58.1c0-.5-.4-.9-.9-.9h-15.7c-1.1 0-1.1 1.8 0 1.8 5.1 0 10.3.3 15.3 0 .5 0-.5-1.4-.6-.5-.1.4.1.9 0 1.4-.3 1.9 0 4 0 5.9v39.1c0 3.6.5 7.6 0 11.2 0-.2 1.3-.4.2-.7-.9-.3-2.4 0-3.4 0-3.1 0-6.8-.5-9.8 0-2 .4-1.1-.7-.9.8 0-.2-.1-.8 0-1 .5-1.3 0-3.9 0-5.3v-17.8-34c.1-1.1-1.7-1.1-1.7 0zM233.5 626.9h15.7c.5 0 .9-.4.9-.9v-58.1c0-.5-.4-.9-.9-.9h-15.7c-.5 0-.9.4-.9.9V626c0 1.1 1.8 1.1 1.8 0v-28.1-20.2c0-3-.6-6.8 0-9.8-.3 1.7-1.2.3.6.8 1.3.4 3.1 0 4.4 0 2.5 0 6.7.8 9.1 0 1.1-.4-.2-.4-.2-.7 0 .3.1.9 0 1.2-.4 1.7 0 3.9 0 5.6v39c0 3.8.7 8.4 0 12.1.2-1.2 1-.8-1.2-.8h-13.5c-1.2.1-1.2 1.8-.1 1.8z"/></g><g id="E_2_"><path class="st2" d="M390.1 518.7v27.6h-24.7v14.1h24.7v25h-24.7v14.2h24.7V626h17.1V518.7z"/><path class="st3" d="M389.2 518.7c0 9-.4 18.2 0 27.2 0 .9 1.3-.4.5-.5-.7-.1-1.6 0-2.3 0h-22c-.5 0-.9.4-.9.9v14.2c0 .5.4.9.9.9h20.9c1.1 0 2.2.1 3.3 0-.8 0 0-1.4-.5.3-1 3.1 0 8.1 0 11.3 0 3.4-.7 7.7 0 11.1.4 2-.5.5.7.6-1.1-.1-2.3 0-3.5 0h-20.9c-.5 0-.9.4-.9.9v14.2c0 .5.4.9.9.9h21.3c.7 0 1.8.2 2.5 0 1.3-.5-.1.2-.1-.7-.3 8.7 0 17.5 0 26.3 0 .5.4.9.9.9h17.1c.5 0 .9-.4.9-.9v-93.8V519c0-.5-.4-.9-.9-.9H390c-1.1 0-1.1 1.8 0 1.8 5.6 0 11.5-.6 17.1 0-1.4-.1-.5-1.3-.8.8-.2 1.5 0 3.2 0 4.7v98.1c0 .9.1 1.8 0 2.7 0 .1 1.2-.3.2-.7-1.3-.5-3.7 0-5 0-3.2 0-7.8-.9-10.9 0-.3.1-.3 1.3.2-.3.4-1.2 0-3.3 0-4.6v-20.7c0-.5-.4-.9-.9-.9h-17.2c-2.4 0-4.8.1-7.2 0 1.2.1.3 1.2.7-1 .3-1.7 0-3.5 0-5.2 0-1.7.3-3.6 0-5.2-.3-2 .7-1.2-.7-1 2.1-.4 4.7 0 6.8 0h17.6c.5 0 .9-.4.9-.9v-25c0-.5-.4-.9-.9-.9h-17.2c-2.4 0-4.8.1-7.2 0 1.2.1.3 1.2.7-1 .3-1.7 0-3.5 0-5.2 0-1.7.3-3.6 0-5.2-.3-2 .7-1.2-.7-1 2.1-.4 4.7 0 6.8 0h17.6c.5 0 .9-.4.9-.9v-27.6c.1-1.3-1.6-1.3-1.6-.2z"/></g><g id="L_2_"><path class="st2" d="M325.2 607.4v-87.2h-16.4v104.4h44v-17.2z"/><path class="st3" d="M326.1 607.4v-76.3-10.9c0-.5-.4-.9-.9-.9h-16.4c-.5 0-.9.4-.9.9v104.3c0 .5.4.9.9.9h44c.5 0 .9-.4.9-.9v-17.1c0-.5-.4-.9-.9-.9h-27.6c-1.1 0-1.1 1.8 0 1.8H348.9c.8 0 2.1.3 2.9 0 .2-.1.7 0 .9 0 .2 0-.6-1.4-.7-.4-.5 5.1-.6 11.3 0 16.4 0 .2 1.4-.4.4-.6-.6-.1-1.2 0-1.8 0h-7.9c-11.2 0-22.6-.7-33.8 0 1.8-.1.2 1.5.8-.1.3-1 0-2.6 0-3.7v-13.8-76.6c0-2.5.7-6.2 0-8.6v-.7c-.3 1.6-1.3.3.3.8 2.6.8 6.7 0 9.5 0 1.3 0 2.8.2 4.1 0 2.1-.4 1.1.7.8-.9.1.7 0 1.5 0 2.2V607.2c-.1 1.3 1.7 1.3 1.7.2z"/></g></g></svg>
