<svg xmlns="http://www.w3.org/2000/svg" id="Layer_1" viewBox="0 0 160.4 25.3"><style>.st0{fill:none;stroke:#662D91;stroke-width:3;stroke-miterlimit:10;} .st1{fill:#00B0D8;stroke:#00B0D8;stroke-width:3;stroke-miterlimit:10;}</style><path d="M41.9 17.7h-2l-5.3-6.9-1.6 1.3v5.6h-1.6V3.3h1.7v7.2l6.5-7.2h1.9l-5.7 6.2 6.1 8.2zm0-10.8h1.8l2.4 6.1c.5 1.4.8 2.4 1 3 .1-.4.2-1 .5-1.7.2-.8 1.2-3.4 2.6-7.4H52l-4.7 12.2c-.5 1.2-1 2-1.6 2.6-.6.5-1.3.7-2.3.7-.5 0-1 0-1.4-.1V21c.4.1.7.1 1.2.1 1.1 0 1.9-.6 2.4-1.9l.6-1.6-4.3-10.7zm13.4 10.8h-1.7V2.5h1.7v15.2zm8 .2c-1.6 0-2.9-.5-3.7-1.4-1-1-1.4-2.3-1.4-4.1 0-1.7.5-3.1 1.3-4.2s2-1.6 3.5-1.6c1.3 0 2.4.5 3.2 1.3.8.8 1.2 2 1.2 3.5v1.1H60c0 1.3.4 2.3 1 2.9.6.6 1.4 1 2.5 1 1.2 0 2.3-.2 3.5-.7v1.4c-.6.2-1.1.5-1.7.5-.7.2-1.3.3-2 .3zm-.5-9.8c-.8 0-1.6.2-2 .8-.5.6-.8 1.3-1 2.4h5.6c0-1.1-.2-1.8-.7-2.4-.5-.6-.9-.8-1.9-.8zm23.9 9.6h-1.9l-7.9-12c.1 1.4.1 2.8.1 3.8v8.1h-1.6V3.3h1.9l7.8 12h.1c0-.1 0-.7-.1-1.7 0-1-.1-1.7 0-2V3.3h1.6v14.4zM90.3 4c0-.4.1-.6.2-.8.3-.1.4-.2.8-.2.2 0 .5.1.7.2s.2.5.2.8-.1.6-.2.9c-.2.2-.4.2-.7.2-.2 0-.5-.1-.7-.2-.3-.3-.3-.5-.3-.9zM92 17.7h-1.7V6.9H92v10.8zm8 .2c-1.6 0-2.9-.5-3.7-1.4-1-1-1.4-2.4-1.4-4.1s.5-3.1 1.3-4.2 2-1.6 3.5-1.6c1.3 0 2.4.5 3.2 1.3s1.2 2 1.2 3.5v1.1h-7.4c0 1.3.4 2.3 1 2.9.6.6 1.4 1 2.5 1 1.2 0 2.3-.2 3.5-.7v1.4c-.6.2-1.1.5-1.7.5-.7.2-1.3.3-2 .3zm-.4-9.8c-.8 0-1.6.2-2 .8-.5.6-.8 1.3-1 2.4h5.6c0-1.1-.2-1.8-.7-2.4s-1-.8-1.9-.8zm16 9.6l-1.9-6.3c-.1-.4-.4-1.3-.7-2.6h-.1c-.2 1.2-.5 2-.7 2.6l-2 6.3h-1.9l-3-10.8h1.7c.7 2.8 1.2 4.8 1.6 6.2.4 1.4.6 2.4.6 2.9h.2c.1-.4.2-.8.4-1.4.1-.6.4-1.1.4-1.4l2-6.2h1.8l1.9 6.2c.4 1.1.6 2 .7 2.9h.1c0-.2.1-.6.2-1.1.1-.5.7-3.2 2-8h1.7l-3 10.8h-2zM122.3 4c0-.4.1-.6.2-.8.1-.2.4-.2.7-.2.2 0 .5.1.7.2s.2.5.2.8-.1.6-.2.8c-.2.2-.4.2-.7.2-.2 0-.5-.1-.7-.2-.1-.2-.2-.4-.2-.8zm1.8 13.7h-1.7V6.9h1.7v10.8zm10 0l-.4-1.6h-.1c-.5.7-1.1 1.1-1.6 1.3-.5.2-1.2.4-2 .4-1.1 0-1.9-.2-2.5-.8-.6-.6-1-1.3-1-2.4 0-2.2 1.8-3.4 5.3-3.5h1.8v-.7c0-.8-.2-1.4-.6-1.9-.4-.4-1-.6-1.8-.6s-1.9.2-3 .8l-.5-1.2c.5-.2 1.1-.5 1.8-.7.6-.1 1.3-.2 1.9-.2 1.3 0 2.3.2 2.9.8.6.6 1 1.4 1 2.8v7.5h-1.2zm-3.7-1.1c1 0 1.8-.2 2.4-.8.6-.6.8-1.3.8-2.4v-1l-1.7.1c-1.3 0-2.3.2-2.8.6-.6.4-.8 1-.8 1.7 0 .6.1 1.1.5 1.3.5.3 1 .5 1.6.5zm15.6-.4c-.8 1.1-1.9 1.7-3.5 1.7-1.4 0-2.5-.5-3.2-1.4-.8-1-1.2-2.3-1.2-4.1s.4-3.1 1.2-4.2c.8-1.1 1.9-1.4 3.2-1.4 1.4 0 2.6.5 3.4 1.6h.1l-.1-.7V2.5h1.7v15.2h-1.3l-.3-1.5zm-3.3.3c1.1 0 1.9-.4 2.4-1s.7-1.6.7-2.9v-.4c0-1.6-.2-2.6-.7-3.2-.5-.6-1.3-1-2.4-1-1 0-1.7.4-2.2 1.1-.5.7-.7 1.8-.7 3.1s.2 2.4.7 3.1c.6.9 1.3 1.2 2.2 1.2zm14.9 1.2l-.4-1.6h-.1c-.5.7-1.1 1.1-1.6 1.3-.5.2-1.2.4-2 .4-1.1 0-1.9-.2-2.5-.8-.6-.6-1-1.3-1-2.4 0-2.2 1.8-3.4 5.3-3.5h1.8v-.7c0-.8-.2-1.4-.6-1.9-.4-.4-1-.6-1.8-.6s-1.9.2-3 .8l-.5-1.2c.5-.2 1.1-.5 1.8-.7.6-.1 1.3-.2 1.9-.2 1.3 0 2.3.2 2.9.8.6.6 1 1.4 1 2.8v7.5h-1.2zm-3.7-1.1c1 0 1.8-.2 2.4-.8.6-.6.8-1.3.8-2.4v-1l-1.7.1c-1.3 0-2.3.2-2.8.6-.6.4-.8 1-.8 1.7 0 .6.1 1.1.5 1.3.5.3 1 .5 1.6.5z"/><circle cx="19.8" cy="10.5" r="7.7" class="st0"/><path d="M2.9 3.3h5.3v14.4H2.9z" class="st1"/></svg>
