<svg xmlns="http://www.w3.org/2000/svg" id="Layer_1" viewBox="0 0 396.2 60"><style>.st0{fill:#010101;} .st1{fill:none;stroke:#67308F;stroke-width:6;stroke-miterlimit:10;} .st2{fill:#00B0D8;}</style><path d="M112.1 42.6h-4.8L94.7 26.2l-3.8 3.1v13.3h-3.8V8.3h4v17.1l15.5-17.1h4.5L97.5 23.1l14.6 19.5zm0-25.7h4.3l5.7 14.5c1.2 3.3 1.9 5.7 2.4 7.1.2-1 .5-2.4 1.2-4 .5-1.9 2.9-8.1 6.2-17.6h4.3l-11.2 29c-1.2 2.9-2.4 4.8-3.8 6.2-1.4 1.2-3.1 1.7-5.5 1.7-1.2 0-2.4 0-3.3-.2v-3.1c1 .2 1.7.2 2.9.2 2.6 0 4.5-1.4 5.7-4.5l1.4-3.8-10.3-25.5zm31.8 25.7h-4V6.4h4v36.2zm19.1.5c-3.8 0-6.9-1.2-8.8-3.3-2.4-2.4-3.3-5.5-3.3-9.8 0-4 1.2-7.4 3.1-10 1.9-2.6 4.8-3.8 8.3-3.8 3.1 0 5.7 1.2 7.6 3.1 1.9 1.9 2.9 4.8 2.9 8.3v2.6h-17.6c0 3.1 1 5.5 2.4 6.9 1.4 1.4 3.3 2.4 5.9 2.4 2.9 0 5.5-.5 8.3-1.7v3.3c-1.4.5-2.6 1.2-4 1.2-1.7.5-3.2.8-4.8.8zm-1.2-23.3c-1.9 0-3.8.5-4.8 1.9-1.2 1.4-1.9 3.1-2.4 5.7H168c0-2.6-.5-4.3-1.7-5.7-1.2-1.5-2.1-1.9-4.5-1.9zm56.8 22.8h-4.5L195.3 14c.2 3.3.2 6.7.2 9v19.3h-3.8v-34h4.5l18.6 28.6h.2c0-.2 0-1.7-.2-4 0-2.4-.2-4 0-4.8V8.3h3.8v34.3zm8.6-32.6c0-1 .2-1.4.5-1.9.7-.2 1-.5 1.9-.5.5 0 1.2.2 1.7.5.5.2.5 1.2.5 1.9s-.2 1.4-.5 2.1c-.5.5-1 .5-1.7.5-.5 0-1.2-.2-1.7-.5-.7-.7-.7-1.1-.7-2.1zm4.1 32.6h-4V16.9h4v25.7zm19 .5c-3.8 0-6.9-1.2-8.8-3.3-2.4-2.4-3.3-5.7-3.3-9.8s1.2-7.4 3.1-10 4.8-3.8 8.3-3.8c3.1 0 5.7 1.2 7.6 3.1 1.9 1.9 2.9 4.8 2.9 8.3v2.6h-17.6c0 3.1 1 5.5 2.4 6.9 1.4 1.4 3.3 2.4 5.9 2.4 2.9 0 5.5-.5 8.3-1.7v3.3c-1.4.5-2.6 1.2-4 1.2-1.7.5-3.1.8-4.8.8zm-1-23.3c-1.9 0-3.8.5-4.8 1.9-1.2 1.4-1.9 3.1-2.4 5.7h13.3c0-2.6-.5-4.3-1.7-5.7-1-1.5-2.2-1.9-4.4-1.9zm38.1 22.8l-4.5-15c-.2-1-1-3.1-1.7-6.2h-.2c-.5 2.9-1.2 4.8-1.7 6.2l-4.8 15H270l-7.1-25.7h4c1.7 6.7 2.9 11.4 3.8 14.8 1 3.3 1.4 5.7 1.4 6.9h.5c.2-1 .5-1.9 1-3.3.2-1.4 1-2.6 1-3.3l4.8-14.8h4.3l4.5 14.8c1 2.6 1.4 4.8 1.7 6.9h.2c0-.5.2-1.4.5-2.6.2-1.2 1.7-7.6 4.8-19h4L292.3 43h-4.8v-.4zM303.3 10c0-1 .2-1.4.5-1.9s1-.5 1.7-.5c.5 0 1.2.2 1.7.5.5.2.5 1.2.5 1.9s-.2 1.4-.5 1.9c-.5.5-1 .5-1.7.5-.5 0-1.2-.2-1.7-.5-.2-.5-.5-.9-.5-1.9zm4.3 32.6h-4V16.9h4v25.7zm23.8 0l-1-3.8h-.2c-1.2 1.7-2.6 2.6-3.8 3.1-1.2.5-2.9 1-4.8 1-2.6 0-4.5-.5-5.9-1.9-1.4-1.4-2.4-3.1-2.4-5.7 0-5.2 4.3-8.1 12.6-8.3h4.3v-1.7c0-1.9-.5-3.3-1.4-4.5-1-1-2.4-1.4-4.3-1.4s-4.5.5-7.1 1.9l-1.2-2.9c1.2-.5 2.6-1.2 4.3-1.7 1.4-.2 3.1-.5 4.5-.5 3.1 0 5.5.5 6.9 1.9 1.4 1.4 2.4 3.3 2.4 6.7v17.8h-2.9zm-8.8-2.6c2.4 0 4.3-.5 5.7-1.9 1.4-1.4 1.9-3.1 1.9-5.7V30l-4 .2c-3.1 0-5.5.5-6.7 1.4-1.4 1-1.9 2.4-1.9 4 0 1.4.2 2.6 1.2 3.1 1.2.8 2.4 1.3 3.8 1.3zm37.1-1c-1.9 2.6-4.5 4-8.3 4-3.3 0-5.9-1.2-7.6-3.3-1.9-2.4-2.9-5.5-2.9-9.8s1-7.4 2.9-10c1.9-2.6 4.5-3.3 7.6-3.3 3.3 0 6.2 1.2 8.1 3.8h.2l-.2-1.7V6.4h4v36.2h-3.1l-.7-3.6zm-7.8.7c2.6 0 4.5-1 5.7-2.4s1.7-3.8 1.7-6.9v-1c0-3.8-.5-6.2-1.7-7.6-1.2-1.4-3.1-2.4-5.7-2.4-2.4 0-4 1-5.2 2.6-1.2 1.7-1.7 4.3-1.7 7.4s.5 5.7 1.7 7.4c1.4 2.2 3 2.9 5.2 2.9zm35.4 2.9l-1-3.8h-.2c-1.2 1.7-2.6 2.6-3.8 3.1-1.2.5-2.9 1-4.8 1-2.6 0-4.5-.5-5.9-1.9s-2.4-3.1-2.4-5.7c0-5.2 4.3-8.1 12.6-8.3h4.3v-1.7c0-1.9-.5-3.3-1.4-4.5-1-1-2.4-1.4-4.3-1.4s-4.5.5-7.1 1.9l-1.2-2.9c1.2-.5 2.6-1.2 4.3-1.7 1.4-.2 3.1-.5 4.5-.5 3.1 0 5.5.5 6.9 1.9 1.4 1.4 2.4 3.3 2.4 6.7v17.8h-2.9zm-8.8-2.6c2.4 0 4.3-.5 5.7-1.9 1.4-1.4 1.9-3.1 1.9-5.7V30l-4 .2c-3.1 0-5.5.5-6.7 1.4-1.4 1-1.9 2.4-1.9 4 0 1.4.2 2.6 1.2 3.1 1.2.8 2.4 1.3 3.8 1.3z" class="st0"/><path id="O" d="M39.2 40.2c-8.1 0-14.7-6.6-14.7-14.7s6.6-14.7 14.7-14.7 14.7 6.6 14.7 14.7-6.6 14.7-14.7 14.7z" class="st1"/><path id="I" d="M6.8 7.9h13v35.2h-13z" class="st2"/></svg>