<svg version="1.1" xmlns="http://www.w3.org/2000/svg" x="0px" y="0px" viewBox="0 0 160.4 25.3" xml:space="preserve"><path d="M35.7,17H34l-4.4-5.8l-1.3,1.1V17H27V5h1.4V11L33.8,5h1.6l-4.8,5.2L35.7,17z"/><path d="M35.7,8h1.5l2,5.1c0.4,1.2,0.7,2,0.8,2.5H40c0.1-0.3,0.2-0.8,0.4-1.4c0.2-0.7,1-2.8,2.2-6.2h1.5l-3.9,10.2 c-0.4,1-0.8,1.7-1.3,2.2c-0.5,0.4-1.1,0.6-1.9,0.6c-0.4,0-0.8,0-1.2-0.1v-1.1c0.3,0.1,0.6,0.1,1,0.1c0.9,0,1.6-0.5,2-1.6l0.5-1.3 L35.7,8z"/><path d="M46.9,17h-1.4V4.3h1.4V17z"/><path d="M53.6,17.2c-1.3,0-2.4-0.4-3.1-1.2c-0.8-0.8-1.2-1.9-1.2-3.4c0-1.4,0.4-2.6,1.1-3.5c0.7-0.9,1.7-1.3,2.9-1.3 c1.1,0,2,0.4,2.7,1.1c0.7,0.7,1,1.7,1,2.9v0.9h-6.2c0,1.1,0.3,1.9,0.8,2.4c0.5,0.5,1.2,0.8,2.1,0.8c1,0,1.9-0.2,2.9-0.6v1.2 c-0.5,0.2-0.9,0.4-1.4,0.4C54.7,17.1,54.2,17.2,53.6,17.2z M53.2,9c-0.7,0-1.3,0.2-1.7,0.7c-0.4,0.5-0.7,1.1-0.8,2h4.7 c0-0.9-0.2-1.5-0.6-2S54,9,53.2,9z"/><path d="M73.2,17h-1.6L65,7H65c0.1,1.2,0.1,2.3,0.1,3.2V17h-1.3V5h1.6l6.5,10H72c0-0.1,0-0.6-0.1-1.4c0-0.8-0.1-1.4,0-1.7V5h1.3V17 z"/><path d="M76.2,5.6c0-0.3,0.1-0.5,0.2-0.7c0.2-0.1,0.3-0.2,0.6-0.2c0.2,0,0.4,0.1,0.6,0.2c0.2,0.1,0.2,0.4,0.2,0.7 c0,0.3-0.1,0.5-0.2,0.7c-0.2,0.2-0.3,0.2-0.6,0.2c-0.2,0-0.4-0.1-0.6-0.2C76.2,6.1,76.2,5.9,76.2,5.6z M77.6,17h-1.4V8h1.4V17z"/><path d="M84.3,17.2c-1.3,0-2.4-0.4-3.1-1.2C80.4,15.2,80,14,80,12.6c0-1.4,0.4-2.6,1.1-3.5s1.7-1.3,2.9-1.3c1.1,0,2,0.4,2.7,1.1 c0.7,0.7,1,1.7,1,2.9v0.9h-6.2c0,1.1,0.3,1.9,0.8,2.4s1.2,0.8,2.1,0.8c1,0,1.9-0.2,2.9-0.6v1.2c-0.5,0.2-0.9,0.4-1.4,0.4 C85.4,17.1,84.9,17.2,84.3,17.2z M83.9,9c-0.7,0-1.3,0.2-1.7,0.7c-0.4,0.5-0.7,1.1-0.8,2h4.7c0-0.9-0.2-1.5-0.6-2S84.7,9,83.9,9z"/><path d="M97.3,17l-1.6-5.3c-0.1-0.3-0.3-1.1-0.6-2.2H95c-0.2,1-0.4,1.7-0.6,2.2L92.7,17h-1.6l-2.5-9h1.4c0.6,2.3,1,4,1.3,5.2 c0.3,1.2,0.5,2,0.5,2.4H92c0.1-0.3,0.2-0.7,0.3-1.2c0.1-0.5,0.3-0.9,0.3-1.2L94.3,8h1.5l1.6,5.2c0.3,0.9,0.5,1.7,0.6,2.4h0.1 c0-0.2,0.1-0.5,0.2-0.9S98.9,12,100,8h1.4l-2.5,9H97.3z"/><path d="M102.9,5.6c0-0.3,0.1-0.5,0.2-0.7s0.3-0.2,0.6-0.2c0.2,0,0.4,0.1,0.6,0.2c0.2,0.1,0.2,0.4,0.2,0.7c0,0.3-0.1,0.5-0.2,0.7 c-0.2,0.2-0.3,0.2-0.6,0.2c-0.2,0-0.4-0.1-0.6-0.2C103,6.1,102.9,5.9,102.9,5.6z M104.4,17H103V8h1.4V17z"/><path d="M112.8,17l-0.3-1.3h-0.1c-0.4,0.6-0.9,0.9-1.3,1.1c-0.4,0.2-1,0.3-1.7,0.3c-0.9,0-1.6-0.2-2.1-0.7s-0.8-1.1-0.8-2 c0-1.8,1.5-2.8,4.4-2.9l1.5,0v-0.6c0-0.7-0.2-1.2-0.5-1.6c-0.3-0.3-0.8-0.5-1.5-0.5c-0.7,0-1.6,0.2-2.5,0.7l-0.4-1 c0.4-0.2,0.9-0.4,1.5-0.6c0.5-0.1,1.1-0.2,1.6-0.2c1.1,0,1.9,0.2,2.4,0.7c0.5,0.5,0.8,1.2,0.8,2.3V17H112.8z M109.7,16.1 c0.8,0,1.5-0.2,2-0.7c0.5-0.5,0.7-1.1,0.7-2v-0.8l-1.4,0.1c-1.1,0-1.9,0.2-2.3,0.5c-0.5,0.3-0.7,0.8-0.7,1.4c0,0.5,0.1,0.9,0.4,1.1 C108.8,15.9,109.2,16.1,109.7,16.1z"/><path d="M122.7,15.8L122.7,15.8c-0.7,0.9-1.6,1.4-2.9,1.4c-1.2,0-2.1-0.4-2.7-1.2c-0.7-0.8-1-1.9-1-3.4s0.3-2.6,1-3.5 s1.6-1.2,2.7-1.2c1.2,0,2.2,0.4,2.8,1.3h0.1l-0.1-0.6l0-0.6V4.3h1.4V17h-1.1L122.7,15.8z M120,16c0.9,0,1.6-0.3,2-0.8 c0.4-0.5,0.6-1.3,0.6-2.4v-0.3c0-1.3-0.2-2.2-0.6-2.7c-0.4-0.5-1.1-0.8-2-0.8c-0.8,0-1.4,0.3-1.8,0.9s-0.6,1.5-0.6,2.6 c0,1.1,0.2,2,0.6,2.6C118.6,15.8,119.2,16,120,16z"/><path d="M132.4,17l-0.3-1.3h-0.1c-0.4,0.6-0.9,0.9-1.3,1.1c-0.4,0.2-1,0.3-1.7,0.3c-0.9,0-1.6-0.2-2.1-0.7s-0.8-1.1-0.8-2 c0-1.8,1.5-2.8,4.4-2.9l1.5,0v-0.6c0-0.7-0.2-1.2-0.5-1.6c-0.3-0.3-0.8-0.5-1.5-0.5c-0.7,0-1.6,0.2-2.5,0.7l-0.4-1 c0.4-0.2,0.9-0.4,1.5-0.6c0.5-0.1,1.1-0.2,1.6-0.2c1.1,0,1.9,0.2,2.4,0.7c0.5,0.5,0.8,1.2,0.8,2.3V17H132.4z M129.3,16.1 c0.8,0,1.5-0.2,2-0.7c0.5-0.5,0.7-1.1,0.7-2v-0.8l-1.4,0.1c-1.1,0-1.9,0.2-2.3,0.5c-0.5,0.3-0.7,0.8-0.7,1.4c0,0.5,0.1,0.9,0.4,1.1 C128.4,15.9,128.8,16.1,129.3,16.1z"/></svg>